<svg width="61" height="59" viewBox="0 0 61 59" fill="none" xmlns="http://www.w3.org/2000/svg">
<path d="M55.1505 44.414C54.6783 44.4196 54.7302 44.3967 54.1024 44.4406V29.754C54.1024 28.1822 52.8236 26.9034 51.2518 26.9034H44.055C44.0512 26.9034 44.0475 26.9028 44.0436 26.9028H35.7562V4.77796L42.5531 11.348C42.9373 11.7194 43.1576 12.2388 43.1576 12.7731V23.6124C43.1576 24.1017 43.5543 24.4984 44.0436 24.4984C44.5329 24.4984 44.9296 24.1017 44.9296 23.6124V12.7731C44.9296 11.7611 44.5124 10.7773 43.7846 10.0739L35.4859 2.05224C35.2994 1.87716 34.9419 1.72004 34.5879 1.8494L19.7004 6.85359V3.40405C19.7116 1.89677 18.3592 0.584889 16.786 0.676325C15.2813 0.676325 14.0571 1.89996 14.0571 3.40405V8.75048L10.1621 10.0598C8.63213 10.5741 7.60412 12.004 7.60412 13.6182V44.4189C3.66138 44.5199 0.484619 47.7563 0.484619 51.7229V56.2283C0.484619 57.4515 1.47967 58.4464 2.70272 58.4464H58.7514C59.9745 58.4464 60.9695 57.4514 60.9695 56.2283V50.233C60.9696 47.0245 58.3592 44.414 55.1505 44.414ZM55.1505 46.1861C57.3821 46.1861 59.1976 48.0015 59.1976 50.2331V51.1626H50.6033V50.2331C50.6053 47.8112 52.7332 45.9762 55.1505 46.1861ZM52.3304 29.754V44.8978C50.2732 45.7959 48.8312 47.8487 48.8312 50.233V51.1625H35.7562V28.6754H51.2518C51.8465 28.6754 52.3304 29.1593 52.3304 29.754ZM15.8291 3.40405C15.8291 2.87706 16.2584 2.44835 16.786 2.44835C17.2599 2.37876 17.8979 2.7503 17.9284 3.40405V7.44922L15.8291 8.15484V3.40405ZM7.60424 46.1892V51.1626H2.28476C2.56036 48.4334 4.82607 46.283 7.60424 46.1892ZM2.25664 56.2284V52.9346H7.60424V56.6745H2.70283C2.45676 56.6745 2.25664 56.4744 2.25664 56.2284ZM9.37626 13.6182C9.37626 12.766 9.91897 12.0111 10.7268 11.7395L33.9843 3.92184V8.74941L14.6608 15.2448C14.197 15.4006 13.9474 15.9031 14.1033 16.367C14.2277 16.7372 14.5729 16.9709 14.943 16.9709C15.0366 16.9709 15.1318 16.956 15.2255 16.9245L33.9843 10.619V15.1264L14.6608 21.6217C14.197 21.7777 13.9474 22.2801 14.1033 22.7439C14.2277 23.1141 14.5729 23.3478 14.943 23.3478C15.0366 23.3478 15.1318 23.3329 15.2255 23.3014L33.9843 16.9958V21.5032L14.6608 27.9986C14.197 28.1545 13.9474 28.6569 14.1033 29.1208C14.2277 29.491 14.5729 29.7247 14.943 29.7247C15.0366 29.7247 15.1318 29.7098 15.2255 29.6783L33.9843 23.3728V27.7861C33.9843 27.7873 33.9842 27.7884 33.9842 27.7895V27.8804L14.6608 34.3755C14.197 34.5315 13.9474 35.0339 14.1033 35.4977C14.2277 35.8679 14.5729 36.1016 14.943 36.1016C15.0366 36.1016 15.1318 36.0867 15.2255 36.0552L33.9841 29.7496V34.2572L21.9181 38.313C21.4544 38.4688 21.2047 38.9712 21.3607 39.4351C21.4851 39.8054 21.8303 40.039 22.2004 40.039C22.2939 40.039 22.3892 40.0241 22.4828 39.9926L33.9841 36.1265V56.6744H26.3299V47.4678C26.3299 46.8644 26.0542 46.3089 25.5735 45.9441C25.0928 45.5793 24.4837 45.4631 23.9025 45.6254L15.6558 47.9276C14.7147 48.1903 14.0573 49.0563 14.0573 50.0335V56.6744H9.37626V13.6182ZM15.8294 50.0336C15.8294 49.8483 15.954 49.6843 16.1323 49.6344L19.3075 48.7479V56.6745H15.8293L15.8294 50.0336ZM21.0795 56.6745V48.2532L24.3789 47.3321C24.4234 47.3196 24.465 47.3274 24.502 47.3556C24.539 47.3837 24.5577 47.4215 24.5577 47.4679V56.6745H21.0795ZM35.7562 56.6745V52.9346H48.8312V56.6745H35.7562ZM59.1976 56.2284C59.1976 56.4745 58.9974 56.6745 58.7515 56.6745H50.6033V52.9346H59.1976V56.2284Z" fill="#B9FF00"/>
<path d="M14.943 42.4785C15.0366 42.4785 15.1318 42.4636 15.2255 42.4321L18.5151 41.3263C18.9789 41.1705 19.2285 40.6681 19.0725 40.2042C18.9166 39.7403 18.4142 39.4905 17.9504 39.6467L14.6608 40.7524C14.197 40.9083 13.9474 41.4107 14.1033 41.8746C14.2277 42.2447 14.5729 42.4785 14.943 42.4785Z" fill="#B9FF00"/>
<path d="M39.6365 35.9833H48.3254C49.1494 35.9833 49.8197 35.313 49.8197 34.4891V32.3564C49.8197 31.5324 49.1494 30.8621 48.3254 30.8621H39.6365C38.8125 30.8621 38.1423 31.5324 38.1423 32.3564V34.4891C38.1423 35.313 38.8126 35.9833 39.6365 35.9833ZM39.9144 32.6341H48.0477V34.2112H39.9144V32.6341Z" fill="#B9FF00"/>
<path d="M39.6365 42.7204H48.3254C49.1494 42.7204 49.8197 42.0501 49.8197 41.2262V39.0935C49.8197 38.2695 49.1494 37.5993 48.3254 37.5993H39.6365C38.8125 37.5993 38.1423 38.2696 38.1423 39.0935V41.2262C38.1423 42.0501 38.8126 42.7204 39.6365 42.7204ZM39.9144 39.3713H48.0477V40.9484H39.9144V39.3713Z" fill="#B9FF00"/>
<path d="M39.6365 49.5265H42.5105C43.3345 49.5265 44.0048 48.8562 44.0048 48.0324V45.8997C44.0048 45.0757 43.3345 44.4054 42.5105 44.4054H39.6365C38.8125 44.4054 38.1423 45.0757 38.1423 45.8997V48.0324C38.1423 48.8562 38.8126 49.5265 39.6365 49.5265ZM39.9144 46.1774H42.2327V47.7545H39.9144V46.1774Z" fill="#B9FF00"/>
</svg>
