<svg width="28" height="28" viewBox="0 0 28 28" fill="none" xmlns="http://www.w3.org/2000/svg">
<g clip-path="url(#clip0_209_7014)">
<path d="M6.21835 21.4134C6.78911 21.1087 7.5086 20.8424 8.3379 20.6258C8.07973 20.3258 7.83319 20.0255 7.60281 19.7318C6.42138 18.2254 3.67347 14.3364 3.67347 10.7652C3.67347 5.0425 8.19006 0.386719 13.7418 0.386719C19.2935 0.386719 23.8101 5.0425 23.8101 10.7652C23.8101 14.3364 21.0621 18.2254 19.8807 19.7317C19.6504 20.0254 19.404 20.3255 19.1459 20.6253C20.0013 20.849 20.7396 21.1256 21.3182 21.442C22.6447 22.1673 22.9232 22.9881 22.9232 23.549C22.9232 24.3283 22.4023 25.4288 19.9206 26.2458C18.2544 26.7943 16.06 27.0964 13.7418 27.0964C11.4236 27.0964 9.22913 26.7943 7.56285 26.2458C5.0812 25.4288 4.56026 24.3283 4.56026 23.549C4.56026 22.9786 4.84796 22.145 6.21835 21.4134ZM22.245 10.7652C22.245 5.90545 18.4305 1.95174 13.7418 1.95174C9.05301 1.95174 5.23849 5.90545 5.23849 10.7652C5.23849 12.9043 6.58274 15.8952 8.83428 18.7659C11.0864 21.6373 13.0941 22.9752 13.7418 22.9752C14.3895 22.9752 16.3971 21.6373 18.6492 18.7659C20.9008 15.8952 22.245 12.9043 22.245 10.7652ZM8.05224 24.7592C9.56478 25.2571 11.5853 25.5314 13.7418 25.5314C15.8982 25.5314 17.9187 25.2571 19.4313 24.7592C21.0042 24.2414 21.3582 23.6984 21.3582 23.549C21.3582 23.2213 20.3454 22.4328 17.9193 21.9491C16.4846 23.3808 14.9109 24.5402 13.7418 24.5402C12.5727 24.5402 10.999 23.3809 9.56441 21.9493C8.49263 22.1625 7.59603 22.4519 6.95542 22.7939C6.29879 23.1446 6.12528 23.4411 6.12528 23.5491C6.12528 23.6984 6.47929 24.2414 8.05224 24.7592Z" fill="#FFD900"/>
<path d="M17.3661 16.4804H10.1172C9.22099 16.4804 8.4919 15.7512 8.4919 14.855V11.8162C8.15416 11.4996 7.95113 11.0574 7.95113 10.5713V9.28156C7.95113 8.33154 8.72404 7.55863 9.67406 7.55863H10.5844V6.28163C10.5844 5.2605 11.4152 4.42969 12.4364 4.42969H15.047C16.0681 4.42969 16.8989 5.2605 16.8989 6.28163V7.55863H17.8092C18.7593 7.55863 19.5322 8.33154 19.5322 9.28156V10.5713C19.5322 11.0582 19.3292 11.5007 18.9915 11.8171V14.855C18.9915 15.7512 18.2623 16.4804 17.3661 16.4804ZM10.1172 14.9154H17.3661C17.3977 14.9154 17.4264 14.8866 17.4264 14.855V12.4104L14.5242 13.0163V13.0645C14.5242 13.4967 14.1738 13.847 13.7417 13.847C13.3095 13.847 12.9591 13.4967 12.9591 13.0645V13.0248L10.0569 12.412V14.8551C10.0569 14.8866 10.0856 14.9154 10.1172 14.9154ZM15.3339 6.28163C15.3339 6.12612 15.2024 5.99471 15.047 5.99471H12.4364C12.2809 5.99471 12.1495 6.12612 12.1495 6.28163V7.55863H15.3339V6.28163ZM17.9672 9.28156C17.9672 9.19596 17.8949 9.12365 17.8092 9.12365H9.67406C9.58845 9.12365 9.51615 9.19601 9.51615 9.28156V10.5713C9.51615 10.6922 9.65737 10.7281 9.68569 10.7341L12.9712 11.4277C13.0341 11.0586 13.3547 10.7773 13.7417 10.7773C14.1262 10.7773 14.4452 11.0548 14.5111 11.4203L17.7995 10.7337C17.8275 10.7278 17.9673 10.6925 17.9673 10.5713V9.28156H17.9672Z" fill="#FFD900"/>
</g>
<defs>
<clipPath id="clip0_209_7014">
<rect width="26.7097" height="26.7097" fill="white" transform="matrix(-1 0 0 1 27.0967 0.386719)"/>
</clipPath>
</defs>
</svg>
