<svg width="23" height="22" viewBox="0 0 23 22" fill="none" xmlns="http://www.w3.org/2000/svg">
<g clip-path="url(#clip0_123_2231)">
<path d="M19.508 1.92613H18.4907V0.230713H16.7953V1.92613H5.60554V0.230713H3.91012V1.92613H2.89286C1.49058 1.92613 0.349731 3.06698 0.349731 4.46927V19.389C0.349731 20.7913 1.49058 21.9321 2.89286 21.9321H19.508C20.9103 21.9321 22.0511 20.7913 22.0511 19.389V4.46927C22.0511 3.06698 20.9103 1.92613 19.508 1.92613ZM2.89286 3.62156H3.91012V5.31698H5.60554V3.62156H16.7953V5.31698H18.4907V3.62156H19.508C19.9754 3.62156 20.3557 4.00184 20.3557 4.46927V6.50377H2.04515V4.46927C2.04515 4.00184 2.42544 3.62156 2.89286 3.62156ZM19.508 20.2367H2.89286C2.42544 20.2367 2.04515 19.8564 2.04515 19.389V8.19919H20.3557V19.389C20.3557 19.8564 19.9754 20.2367 19.508 20.2367ZM3.57103 9.97938H5.26645V11.6748H3.57103V9.97938ZM6.96187 9.97938H8.6573V11.6748H6.96187V9.97938ZM10.3527 9.97938H12.0481V11.6748H10.3527V9.97938ZM15.439 11.6748H13.7436V9.97938H15.439V11.6748ZM18.8298 11.6748H17.1344V9.97938H18.8298V11.6748ZM3.57103 13.3702H5.26645V15.0656H3.57103V13.3702ZM6.96187 13.3702H8.6573V15.0656H6.96187V13.3702ZM10.3527 13.3702H12.0481V15.0656H10.3527V13.3702ZM3.57103 16.7611H5.26645V18.4565H3.57103V16.7611ZM6.96187 16.7611H8.6573V18.4565H6.96187V16.7611ZM10.3527 16.7611H12.0481V18.4565H10.3527V16.7611ZM19.0841 15.1218C19.0841 16.3791 17.1114 17.7192 16.4792 18.0899C16.4195 18.1249 16.2867 18.2022 16.2867 18.2022C16.2867 18.2022 16.1539 18.1249 16.0941 18.0899C15.4619 17.7192 13.4892 16.3792 13.4892 15.1218C13.4892 14.1949 14.1154 13.6245 14.888 13.6245C15.965 13.6245 16.2867 14.4144 16.2867 14.7246C16.2867 14.4144 16.6084 13.6245 17.6854 13.6245C18.4579 13.6245 19.0841 14.1949 19.0841 15.1218Z" fill="#E2A3FF"/>
</g>
<defs>
<clipPath id="clip0_123_2231">
<rect width="21.7014" height="21.7014" fill="white" transform="translate(0.349731 0.230713)"/>
</clipPath>
</defs>
</svg>
