<svg width="30" height="29" viewBox="0 0 30 29" fill="none" xmlns="http://www.w3.org/2000/svg">
<path d="M25.2207 6.52312H21.4167L20.9737 5.19426C20.7602 4.54902 20.3486 3.9876 19.7974 3.58994C19.2463 3.19228 18.5837 2.97865 17.904 2.97949L12.4309 2.97949C11.7515 2.97898 11.0892 3.19274 10.5382 3.59036C9.98724 3.98799 9.57571 4.54924 9.36215 5.19426L8.91831 6.52312L5.11423 6.52312C4.25646 6.52405 3.43409 6.86522 2.82755 7.47176C2.22101 8.07829 1.87984 8.90067 1.87891 9.75844L1.87891 22.7812C1.88078 23.6384 2.22236 24.4599 2.8288 25.0656C3.43523 25.6714 4.25707 26.0121 5.11423 26.013L25.2243 26.013C26.0814 26.0112 26.9029 25.6696 27.5087 25.0631C28.1144 24.4567 28.4551 23.6349 28.4561 22.7777L28.4561 9.7549C28.4542 8.89774 28.1126 8.07627 27.5062 7.4705C26.8997 6.86473 26.0779 6.52405 25.2207 6.52312ZM26.6843 22.7777C26.6838 23.1657 26.5294 23.5377 26.2551 23.812C25.9807 24.0864 25.6087 24.2408 25.2207 24.2412L5.11423 24.2412C4.72623 24.2408 4.35425 24.0864 4.07989 23.812C3.80553 23.5377 3.65119 23.1657 3.65072 22.7777L3.65072 9.7549C3.65212 9.36751 3.80688 8.99644 4.08114 8.72284C4.3554 8.44925 4.72684 8.29539 5.11423 8.29493H9.55705C9.7429 8.29479 9.92401 8.23619 10.0747 8.12745C10.2255 8.0187 10.3382 7.8653 10.3969 7.68897L11.0427 5.75149C11.1397 5.46007 11.326 5.2066 11.5752 5.02707C11.8244 4.84753 12.1238 4.75104 12.4309 4.75131L17.904 4.75131C18.2113 4.75097 18.5109 4.84753 18.7601 5.02726C19.0093 5.20698 19.1955 5.46072 19.2923 5.75238L19.9381 7.68897C19.9968 7.8653 20.1095 8.0187 20.2602 8.12745C20.411 8.23619 20.5921 8.29479 20.7779 8.29493H25.2207C25.6087 8.2954 25.9807 8.44974 26.2551 8.7241C26.5294 8.99846 26.6838 9.37044 26.6843 9.75844L26.6843 22.7777Z" fill="#00EBBD"/>
<path d="M15.1675 9.18164C13.8534 9.18164 12.5688 9.57132 11.4761 10.3014C10.3835 11.0315 9.53185 12.0692 9.02896 13.2833C8.52607 14.4974 8.39449 15.8333 8.65086 17.1222C8.90724 18.411 9.54004 19.5949 10.4693 20.5241C11.3985 21.4534 12.5824 22.0862 13.8712 22.3425C15.1601 22.5989 16.4961 22.4673 17.7101 21.9644C18.9242 21.4616 19.9619 20.6099 20.692 19.5173C21.4221 18.4246 21.8118 17.14 21.8118 15.8259C21.8099 14.0643 21.1093 12.3754 19.8636 11.1298C18.618 9.88414 16.9291 9.18352 15.1675 9.18164ZM15.1675 20.6984C14.2038 20.6984 13.2618 20.4126 12.4605 19.8772C11.6592 19.3419 11.0347 18.5809 10.6659 17.6905C10.2971 16.8002 10.2006 15.8205 10.3886 14.8754C10.5766 13.9302 11.0407 13.062 11.7221 12.3806C12.4035 11.6991 13.2717 11.2351 14.2169 11.0471C15.1621 10.8591 16.1418 10.9556 17.0321 11.3243C17.9224 11.6931 18.6834 12.3176 19.2188 13.1189C19.7542 13.9202 20.04 14.8622 20.04 15.8259C20.0386 17.1178 19.5248 18.3563 18.6113 19.2697C17.6978 20.1832 16.4593 20.697 15.1675 20.6984Z" fill="#00EBBD"/>
<path d="M24.0265 11.8392C24.5158 11.8392 24.9124 11.4426 24.9124 10.9533C24.9124 10.464 24.5158 10.0674 24.0265 10.0674C23.5373 10.0674 23.1406 10.464 23.1406 10.9533C23.1406 11.4426 23.5373 11.8392 24.0265 11.8392Z" fill="#00EBBD"/>
</svg>
