<svg width="38" height="38" viewBox="0 0 38 38" fill="none" xmlns="http://www.w3.org/2000/svg">
<path d="M15.1341 23.6384H5.85938C5.43274 23.6384 5.08649 23.2922 5.08649 22.8655C5.08649 22.4389 5.43274 22.0927 5.85938 22.0927H15.1341C15.5607 22.0927 15.907 22.4389 15.907 22.8655C15.907 23.2922 15.5607 23.6384 15.1341 23.6384Z" fill="#00EBBD"/>
<path d="M13.5883 28.2758H5.85938C5.43274 28.2758 5.08649 27.9295 5.08649 27.5029C5.08649 27.0762 5.43274 26.73 5.85938 26.73H13.5883C14.015 26.73 14.3612 27.0762 14.3612 27.5029C14.3612 27.9295 14.015 28.2758 13.5883 28.2758Z" fill="#00EBBD"/>
<path d="M13.5883 11.2721C11.8833 11.2721 10.4967 9.88557 10.4967 8.18056C10.4967 6.47556 11.8833 5.08899 13.5883 5.08899C15.2933 5.08899 16.6799 6.47556 16.6799 8.18056C16.6799 9.88557 15.2933 11.2721 13.5883 11.2721ZM13.5883 6.63478C12.7365 6.63478 12.0425 7.32883 12.0425 8.18056C12.0425 9.03229 12.7365 9.72635 13.5883 9.72635C14.44 9.72635 15.1341 9.03229 15.1341 8.18056C15.1341 7.32883 14.44 6.63478 13.5883 6.63478Z" fill="#00EBBD"/>
<path d="M18.9986 19.0011C18.5719 19.0011 18.2257 18.6549 18.2257 18.2282V16.6825C18.2257 15.4041 17.1853 14.3638 15.907 14.3638H11.2696C9.99125 14.3638 8.95094 15.4041 8.95094 16.6825V18.2282C8.95094 18.6549 8.60468 19.0011 8.17804 19.0011C7.75141 19.0011 7.40515 18.6549 7.40515 18.2282V16.6825C7.40515 14.5524 9.13952 12.818 11.2696 12.818H15.907C18.0371 12.818 19.7714 14.5524 19.7714 16.6825V18.2282C19.7714 18.6549 19.4252 19.0011 18.9986 19.0011Z" fill="#00EBBD"/>
<path d="M15.1341 32.9132H4.31363C2.18353 32.9132 0.449158 31.1788 0.449158 29.0487V4.31613C0.449158 2.18603 2.18353 0.45166 4.31363 0.45166H22.8631C24.9932 0.45166 26.7275 2.18603 26.7275 4.31613V13.6836C26.7275 14.1102 26.3813 14.4565 25.9546 14.4565C25.528 14.4565 25.1817 14.1102 25.1817 13.6836V4.31613C25.1817 3.03776 24.1414 1.99745 22.8631 1.99745H4.31363C3.03526 1.99745 1.99494 3.03776 1.99494 4.31613V29.0487C1.99494 30.3271 3.03526 31.3674 4.31363 31.3674H15.1341C15.5608 31.3674 15.907 31.7137 15.907 32.1403C15.907 32.5669 15.5608 32.9132 15.1341 32.9132Z" fill="#00EBBD"/>
<path d="M27.5004 37.5506C21.9603 37.5506 17.4528 33.043 17.4528 27.5029C17.4528 21.9628 21.9603 17.4553 27.5004 17.4553C33.0405 17.4553 37.548 21.9628 37.548 27.5029C37.548 33.043 33.0405 37.5506 27.5004 37.5506ZM27.5004 19.0011C22.812 19.0011 18.9985 22.8146 18.9985 27.5029C18.9985 32.1913 22.812 36.0048 27.5004 36.0048C32.1887 36.0048 36.0022 32.1913 36.0022 27.5029C36.0022 22.8146 32.1887 19.0011 27.5004 19.0011Z" fill="#00EBBD"/>
<path d="M25.9546 31.3674C25.7506 31.3674 25.5527 31.2855 25.4074 31.1418L22.3159 28.0502C22.0144 27.7488 22.0144 27.2587 22.3159 26.9573C22.6173 26.6559 23.1073 26.6559 23.4087 26.9573L25.916 29.4646L30.7821 23.9028C31.0635 23.5798 31.5519 23.5473 31.8735 23.8302C32.195 24.1115 32.2274 24.6 31.9461 24.9215L26.5359 31.1047C26.3952 31.2654 26.1927 31.3613 25.9794 31.3674C25.9716 31.3674 25.9624 31.3674 25.9546 31.3674Z" fill="#00EBBD"/>
</svg>
