<svg width="29" height="30" viewBox="0 0 29 30" fill="none" xmlns="http://www.w3.org/2000/svg">
<g clip-path="url(#clip0_123_2343)">
<path d="M26.2585 10.2719H25.9319L21.8927 3.21835C21.5803 2.67296 21.0762 2.28256 20.4711 2.12062C20.2459 2.06077 20.0172 2.03381 19.7909 2.04142C19.4113 2.05415 19.0385 2.16174 18.7004 2.35774L1.55535 12.3388C0.805855 12.7755 0.386132 13.5712 0.389825 14.3872C0.391644 14.7814 0.493116 15.1808 0.702178 15.5458L3.91737 21.161V25.5573C3.91737 26.8542 4.97265 27.9089 6.26908 27.9089H26.2585C27.5549 27.9089 28.6102 26.8543 28.6102 25.5573V12.6235C28.6102 11.3266 27.5549 10.2719 26.2585 10.2719ZM3.91737 12.6228V18.7953L1.72186 14.9607C1.40036 14.3986 1.59095 13.6781 2.14786 13.3542L3.94945 12.3054C3.93512 12.4102 3.91737 12.5141 3.91737 12.6228ZM19.293 3.37395C19.5594 3.2178 19.8694 3.17585 20.1668 3.25627C20.4666 3.33663 20.7168 3.5307 20.873 3.80282L24.5775 10.2719H7.44381L19.293 3.37395ZM27.4343 25.5571C27.4343 26.2053 26.9072 26.7329 26.2585 26.7329H6.26908C5.62029 26.7329 5.09325 26.2053 5.09325 25.5571V12.6228C5.09325 11.9746 5.62034 11.447 6.26908 11.447H26.2585C26.9073 11.447 27.4343 11.9746 27.4343 12.6228V25.5571Z" fill="#00EBBD"/>
<path d="M25.6706 20.8538H18.6155C18.2905 20.8538 18.0275 21.1167 18.0275 21.4417C18.0275 21.7667 18.2905 22.0296 18.6155 22.0296H25.6706C25.9955 22.0296 26.2585 21.7667 26.2585 21.4417C26.2585 21.1167 25.9955 20.8538 25.6706 20.8538Z" fill="#00EBBD"/>
<path d="M25.6706 17.3262H16.2638C15.9388 17.3262 15.6758 17.5891 15.6758 17.9141C15.6758 18.2391 15.9388 18.5021 16.2638 18.5021H25.6706C25.9956 18.5021 26.2585 18.2391 26.2585 17.9141C26.2585 17.5891 25.9956 17.3262 25.6706 17.3262Z" fill="#00EBBD"/>
<path d="M10.9724 19.6779C12.2689 19.6779 13.3242 18.6232 13.3242 17.3262C13.3242 16.0292 12.2689 14.9745 10.9724 14.9745C9.67601 14.9745 8.62073 16.0292 8.62073 17.3262C8.62073 18.6232 9.67607 19.6779 10.9724 19.6779ZM10.9724 16.1504C11.6212 16.1504 12.1483 16.678 12.1483 17.3262C12.1483 17.9744 11.6212 18.502 10.9724 18.502C10.3236 18.502 9.79661 17.9744 9.79661 17.3262C9.79661 16.678 10.3237 16.1504 10.9724 16.1504Z" fill="#00EBBD"/>
<path d="M14.4851 21.1321C13.6629 20.7371 12.3872 20.2657 10.9725 20.2657C9.55777 20.2657 8.28201 20.7371 7.45987 21.1321C6.72498 21.4858 6.2691 22.1915 6.2691 22.9734V23.2421C6.2691 23.8702 6.7962 24.3812 7.44493 24.3812H14.5C15.1488 24.3812 15.6758 23.8702 15.6758 23.2421V22.9734C15.6759 22.1915 15.22 21.4858 14.4851 21.1321ZM14.5 23.2054L7.44493 23.2421V22.9734C7.44493 22.6473 7.64589 22.3476 7.96971 22.192C8.68167 21.8498 9.77939 21.4416 10.9725 21.4416C12.1656 21.4416 13.2633 21.8498 13.9752 22.192C14.2991 22.3476 14.5 22.6473 14.5 22.9734V23.2054Z" fill="#00EBBD"/>
</g>
<defs>
<clipPath id="clip0_123_2343">
<rect width="28.2203" height="28.2203" fill="white" transform="translate(0.389832 0.86438)"/>
</clipPath>
</defs>
</svg>
