<svg width="31" height="31" viewBox="0 0 31 31" fill="none" xmlns="http://www.w3.org/2000/svg">
<g clip-path="url(#clip0_123_1885)">
<path d="M26.6247 2.3429H4.47704C2.43923 2.34492 0.78802 3.99635 0.785767 6.03417V25.2286C0.78802 27.2664 2.43923 28.9179 4.47704 28.9199H26.6247C28.6623 28.9179 30.3137 27.2664 30.316 25.2286V6.03417C30.3137 3.99635 28.6625 2.34492 26.6247 2.3429ZM4.47704 3.81927H26.6247C27.8472 3.82062 28.838 4.81148 28.8394 6.03417V8.24885H2.26237V6.03417C2.26349 4.81148 3.25435 3.82062 4.47704 3.81927ZM26.6247 27.4435H4.47704C3.25435 27.4422 2.26349 26.4513 2.26214 25.2286V9.72545H28.8394V25.2286C28.838 26.4513 27.8474 27.4422 26.6247 27.4435Z" fill="#E2A3FF"/>
<path d="M4.47695 6.77227H5.95355C6.36111 6.77227 6.69162 6.44176 6.69162 6.0342C6.69162 5.62641 6.36111 5.2959 5.95355 5.2959H4.47695C4.06916 5.2959 3.73865 5.62641 3.73865 6.0342C3.73865 6.44176 4.06916 6.77227 4.47695 6.77227Z" fill="#E2A3FF"/>
<path d="M8.90651 6.77227H10.3831C10.7907 6.77227 11.1212 6.44176 11.1212 6.0342C11.1212 5.62641 10.7907 5.2959 10.3831 5.2959H8.90651C8.49872 5.2959 8.16821 5.62641 8.16821 6.0342C8.16821 6.44176 8.49872 6.77227 8.90651 6.77227Z" fill="#E2A3FF"/>
<path d="M11.9414 18.9415C12.3631 18.4233 12.595 17.7763 12.5979 17.108C12.5979 15.4771 11.2758 14.1548 9.64491 14.1548C8.01398 14.1548 6.69171 15.4771 6.69171 17.108C6.69464 17.7763 6.92647 18.4233 7.34845 18.9415C6.05051 19.5449 5.21894 20.8446 5.21533 22.2757C5.21533 22.6835 5.54584 23.014 5.95363 23.014H13.3362C13.7437 23.014 14.0743 22.6835 14.0743 22.2757C14.0707 20.8446 13.2391 19.5449 11.9414 18.9415ZM9.64468 15.6314C10.4603 15.6314 11.1213 16.2925 11.1213 17.108C11.1213 17.9234 10.4603 18.5844 9.64468 18.5844C8.82933 18.5844 8.16831 17.9234 8.16831 17.108C8.16921 16.2929 8.82978 15.6323 9.64468 15.6314ZM6.81878 21.5374C7.13216 20.6531 7.96824 20.0617 8.90661 20.0608H10.3832C11.3213 20.0617 12.1577 20.6529 12.471 21.5374H6.81878Z" fill="#E2A3FF"/>
<path d="M25.1481 17.8461H17.7655C17.358 17.8461 17.0275 18.1766 17.0275 18.5844C17.0275 18.9922 17.358 19.3227 17.7655 19.3227H25.1481C25.5559 19.3227 25.8864 18.9922 25.8864 18.5844C25.8864 18.1766 25.5559 17.8461 25.1481 17.8461Z" fill="#E2A3FF"/>
<path d="M25.1481 14.8931H17.7655C17.358 14.8931 17.0275 15.2236 17.0275 15.6314C17.0275 16.0392 17.358 16.3697 17.7655 16.3697H25.1481C25.5559 16.3697 25.8864 16.0392 25.8864 15.6314C25.8864 15.2236 25.5559 14.8931 25.1481 14.8931Z" fill="#E2A3FF"/>
<path d="M25.1481 20.7993H17.7655C17.358 20.7993 17.0275 21.1298 17.0275 21.5374C17.0275 21.9452 17.358 22.2757 17.7655 22.2757H25.1481C25.5559 22.2757 25.8864 21.9452 25.8864 21.5374C25.8864 21.1298 25.5559 20.7993 25.1481 20.7993Z" fill="#E2A3FF"/>
</g>
<defs>
<clipPath id="clip0_123_1885">
<rect width="29.5301" height="29.5301" fill="white" transform="translate(0.843384 0.843384)"/>
</clipPath>
</defs>
</svg>
