<svg width="26" height="25" viewBox="0 0 26 25" fill="none" xmlns="http://www.w3.org/2000/svg">
<g clip-path="url(#clip0_123_2233)">
<path d="M5.40321 13.6874L8.22833 10.8623C9.30903 11.6717 10.6562 12.0417 11.9988 11.8977C13.3413 11.7537 14.5794 11.1065 15.4639 10.0864C16.3484 9.06622 16.8136 7.74886 16.7659 6.3995C16.7181 5.05013 16.161 3.76895 15.2066 2.81387C14.2522 1.85878 12.9714 1.30072 11.622 1.25201C10.2727 1.20331 8.95501 1.66758 7.93423 2.55137C6.91345 3.43515 6.26537 4.67283 6.12046 6.01524C5.97555 7.35766 6.34456 8.70513 7.15322 9.7864L4.32734 12.6123L3.25147 11.5356C3.1087 11.393 2.9151 11.3129 2.71326 11.3129C2.51142 11.313 2.31788 11.3933 2.17521 11.536C2.03254 11.6788 1.95243 11.8724 1.9525 12.0742C1.95258 12.2761 2.03282 12.4696 2.17559 12.6123L3.25147 13.6889L1.7457 15.1939C1.67303 15.2641 1.61507 15.3481 1.57519 15.4409C1.53531 15.5337 1.51432 15.6336 1.51345 15.7346C1.51257 15.8356 1.53182 15.9358 1.57008 16.0293C1.60833 16.1228 1.66483 16.2078 1.73627 16.2792C1.80771 16.3507 1.89266 16.4072 1.98617 16.4454C2.07968 16.4837 2.17987 16.5029 2.2809 16.502C2.38193 16.5012 2.48177 16.4802 2.5746 16.4403C2.66743 16.4004 2.75139 16.3425 2.82157 16.2698L4.32734 14.764L5.40321 15.8399C5.4734 15.9126 5.55736 15.9705 5.65019 16.0104C5.74302 16.0503 5.84286 16.0713 5.94389 16.0722C6.04492 16.073 6.14511 16.0538 6.23862 16.0155C6.33212 15.9773 6.41708 15.9208 6.48852 15.8493C6.55996 15.7779 6.61645 15.6929 6.65471 15.5994C6.69297 15.5059 6.71222 15.4057 6.71134 15.3047C6.71046 15.2037 6.68947 15.1038 6.6496 15.011C6.60972 14.9182 6.55176 14.8342 6.47909 14.764L5.40321 13.6874ZM11.4141 2.79703C12.1665 2.79703 12.9021 3.02015 13.5277 3.43818C14.1533 3.85621 14.6409 4.45037 14.9289 5.14552C15.2168 5.84068 15.2922 6.60561 15.1454 7.34358C14.9986 8.08156 14.6362 8.75943 14.1042 9.29148C13.5721 9.82353 12.8943 10.1859 12.1563 10.3326C11.4183 10.4794 10.6534 10.4041 9.95824 10.1162C9.26308 9.82822 8.66892 9.3406 8.25089 8.71498C7.83286 8.08935 7.60974 7.35382 7.60974 6.60139C7.60974 5.59241 8.01056 4.62476 8.72401 3.9113C9.43747 3.19784 10.4051 2.79703 11.4141 2.79703Z" fill="#B9FF00"/>
<path d="M23.588 8.88403H19.7837C19.5819 8.88403 19.3884 8.9642 19.2457 9.10689C19.103 9.24958 19.0228 9.44311 19.0228 9.64491C19.0228 9.8467 19.103 10.0402 19.2457 10.1829C19.3884 10.3256 19.5819 10.4058 19.7837 10.4058H21.7513L17.6426 14.5145C16.5616 13.7055 15.2143 13.3361 13.8718 13.4806C12.5294 13.6251 11.2915 14.2727 10.4074 15.2932C9.52331 16.3137 9.05861 17.6312 9.10685 18.9805C9.1551 20.3298 9.71271 21.6108 10.6674 22.5655C11.6222 23.5203 12.9031 24.0779 14.2524 24.1261C15.6018 24.1743 16.9193 23.7096 17.9397 22.8255C18.9602 21.9414 19.6079 20.7036 19.7524 19.3611C19.8969 18.0187 19.5274 16.6714 18.7185 15.5904L22.8272 11.4816V13.4493C22.8272 13.6511 22.9073 13.8446 23.05 13.9873C23.1927 14.13 23.3863 14.2101 23.588 14.2101C23.7898 14.2101 23.9834 14.13 24.1261 13.9873C24.2688 13.8446 24.3489 13.6511 24.3489 13.4493V9.64491C24.3489 9.44311 24.2688 9.24958 24.1261 9.10689C23.9834 8.9642 23.7898 8.88403 23.588 8.88403ZM14.4576 22.5797C13.7052 22.5797 12.9696 22.3566 12.344 21.9386C11.7184 21.5206 11.2308 20.9264 10.9428 20.2312C10.6549 19.5361 10.5795 18.7711 10.7263 18.0332C10.8731 17.2952 11.2354 16.6173 11.7675 16.0853C12.2995 15.5532 12.9774 15.1909 13.7154 15.0441C14.4534 14.8973 15.2183 14.9727 15.9135 15.2606C16.6086 15.5485 17.2028 16.0362 17.6208 16.6618C18.0388 17.2874 18.2619 18.0229 18.2619 18.7754C18.2619 19.275 18.1635 19.7697 17.9724 20.2312C17.7812 20.6928 17.5009 21.1122 17.1477 21.4655C16.7944 21.8187 16.375 22.099 15.9135 22.2901C15.4519 22.4813 14.9572 22.5797 14.4576 22.5797Z" fill="#B9FF00"/>
</g>
<defs>
<clipPath id="clip0_123_2233">
<rect width="24.3479" height="24.3479" fill="white" transform="translate(0.761894 0.514404)"/>
</clipPath>
</defs>
</svg>
