<svg width="27" height="27" viewBox="0 0 27 27" fill="none" xmlns="http://www.w3.org/2000/svg">
<path d="M13.3557 0.181642C20.6983 0.181641 26.6711 6.15494 26.6711 13.4971C26.6711 20.8392 20.6983 26.8125 13.3557 26.8125C6.01316 26.8125 0.0402965 20.8392 0.0402958 13.4971C0.0402952 6.15495 6.01316 0.181642 13.3557 0.181642ZM3.12816 8.1709L6.82804 8.1709C7.32043 6.00064 8.1119 4.15373 9.10623 2.77798C6.52723 3.80437 4.40508 5.72974 3.12816 8.1709ZM1.81568 13.4971C1.81568 14.7363 2.0168 15.9283 2.38003 17.0478L6.50816 17.0478C6.34692 15.9192 6.25416 14.7333 6.25416 13.4971C6.25416 12.2609 6.34692 11.075 6.50816 9.94629L2.38003 9.94629C2.0168 11.0659 1.81568 12.2578 1.81568 13.4971ZM13.3557 25.0371C15.1883 25.0371 17.1085 22.6744 18.0638 18.8232L8.64764 18.8232C9.60295 22.6744 11.5231 25.0371 13.3557 25.0371ZM18.421 17.0478C18.5874 15.9495 18.6819 14.7623 18.6819 13.4971C18.6819 12.2318 18.5874 11.0446 18.421 9.94629L8.29048 9.94629C8.12404 11.0446 8.02955 12.2318 8.02955 13.4971C8.02955 14.7623 8.12404 15.9495 8.29048 17.0478L18.421 17.0478ZM24.8958 13.4971C24.8958 12.2578 24.6946 11.0659 24.3314 9.94629L20.2033 9.94629C20.3645 11.075 20.4573 12.2609 20.4573 13.4971C20.4573 14.7333 20.3645 15.9192 20.2033 17.0478L24.3314 17.0478C24.6946 15.9283 24.8958 14.7363 24.8958 13.4971ZM13.3557 1.95703C11.5231 1.95703 9.60295 4.31974 8.64764 8.1709L18.0638 8.1709C17.1085 4.31974 15.1883 1.95703 13.3557 1.95703ZM17.6052 2.77798C18.5995 4.15373 19.391 6.00064 19.8834 8.1709L23.5833 8.1709C22.3064 5.72973 20.1842 3.80437 17.6052 2.77798ZM23.5833 18.8232L19.8834 18.8232C19.391 20.9935 18.5995 22.8404 17.6052 24.2162C20.1842 23.1898 22.3064 21.2644 23.5833 18.8232ZM9.10623 24.2162C8.1119 22.8404 7.32043 20.9935 6.82804 18.8232L3.12816 18.8232C4.40508 21.2644 6.52723 23.1898 9.10623 24.2162Z" fill="#00EBBD"/>
</svg>
