<svg width="21" height="21" viewBox="0 0 21 21" fill="none" xmlns="http://www.w3.org/2000/svg">
<path d="M12.568 4.77972C12.4647 4.77972 12.3656 4.73868 12.2926 4.66564C12.2195 4.59259 12.1785 4.49352 12.1785 4.39022C12.1785 4.28692 12.2195 4.18785 12.2926 4.1148C12.3656 4.04176 12.4647 4.00072 12.568 4.00072C12.7289 4.01061 12.8797 4.08226 12.989 4.20072C13.0633 4.27246 13.163 4.31176 13.2662 4.30998C13.3694 4.3082 13.4677 4.26548 13.5395 4.19122C13.6112 4.11696 13.6505 4.01724 13.6488 3.914C13.647 3.81076 13.6042 3.71246 13.53 3.64072C13.3687 3.47936 13.1727 3.35693 12.957 3.28272V2.83172C12.957 2.72842 12.916 2.62934 12.8429 2.5563C12.7699 2.48325 12.6708 2.44222 12.5675 2.44222C12.4642 2.44222 12.3651 2.48325 12.2921 2.5563C12.219 2.62934 12.178 2.72842 12.178 2.83172V3.28772C11.9184 3.37965 11.6996 3.56036 11.5603 3.79793C11.421 4.03549 11.3701 4.31465 11.4167 4.58608C11.4632 4.85752 11.6042 5.10378 11.8147 5.28139C12.0251 5.45899 12.2916 5.55651 12.567 5.55672C12.6703 5.55672 12.7693 5.59776 12.8424 5.6708C12.9154 5.74385 12.9565 5.84292 12.9565 5.94622C12.9565 6.04952 12.9154 6.14859 12.8424 6.22164C12.7693 6.29468 12.6703 6.33572 12.567 6.33572C12.4663 6.32601 12.369 6.29461 12.2816 6.24368C12.1943 6.19276 12.119 6.12352 12.061 6.04072C11.9947 5.96116 11.8995 5.91119 11.7963 5.90181C11.6932 5.89243 11.5905 5.92442 11.511 5.99072C11.4314 6.05702 11.3815 6.15222 11.3721 6.25537C11.3627 6.35851 11.3947 6.46115 11.461 6.54072C11.6472 6.77199 11.8935 6.94742 12.173 7.04772V7.50172C12.173 7.60502 12.214 7.70409 12.2871 7.77714C12.3601 7.85018 12.4592 7.89122 12.5625 7.89122C12.6658 7.89122 12.7649 7.85018 12.8379 7.77714C12.911 7.70409 12.952 7.60502 12.952 7.50172V7.04572C13.2116 6.95378 13.4304 6.77308 13.5697 6.53551C13.709 6.29794 13.7598 6.01879 13.7133 5.74735C13.6668 5.47592 13.5258 5.22966 13.3153 5.05205C13.1048 4.87445 12.8384 4.77693 12.563 4.77672L12.568 4.77972Z" fill="#00BA00"/>
<path d="M12.568 0.886719C11.721 0.886719 10.8931 1.13784 10.1888 1.60833C9.48453 2.07882 8.93557 2.74755 8.61131 3.52999C8.28705 4.31243 8.20206 5.17345 8.36708 6.00419C8.5321 6.83493 8.93972 7.59809 9.53841 8.1972C10.1371 8.7963 10.9 9.20446 11.7306 9.37006C12.5612 9.53566 13.4223 9.45127 14.205 9.12755C14.9876 8.80384 15.6567 8.25535 16.1277 7.55141C16.5987 6.84747 16.8504 6.01969 16.851 5.17272C16.8505 4.03668 16.3991 2.94728 15.5961 2.1437C14.7931 1.34012 13.704 0.888043 12.568 0.886719ZM12.568 8.67372C11.8758 8.67372 11.1991 8.46845 10.6235 8.08386C10.0479 7.69928 9.59933 7.15265 9.33443 6.51311C9.06952 5.87357 9.00021 5.16984 9.13525 4.4909C9.2703 3.81197 9.60364 3.18833 10.0931 2.69884C10.5826 2.20936 11.2062 1.87602 11.8852 1.74097C12.5641 1.60592 13.2679 1.67523 13.9074 1.94014C14.5469 2.20505 15.0936 2.65365 15.4782 3.22922C15.8627 3.8048 16.068 4.48148 16.068 5.17372C16.0656 6.10115 15.6961 6.98991 15.0402 7.64561C14.3843 8.30132 13.4954 8.67161 12.568 8.67372Z" fill="#00BA00"/>
<path d="M18.728 9.55671C18.4356 9.54587 18.1462 9.61941 17.8944 9.76853C17.6426 9.91765 17.439 10.1361 17.308 10.3977C16.9509 11.2412 16.3 11.9266 15.476 12.3267C15.3451 12.0713 15.1464 11.8569 14.9018 11.7068C14.6572 11.5567 14.376 11.4767 14.089 11.4757H10.189C9.92901 11.4542 9.67863 11.3676 9.461 11.2237C8.85527 10.8681 8.16331 10.6861 7.461 10.6977C5.677 10.6977 3.943 12.4487 3.224 13.6747L3.131 13.5817C3.09486 13.5455 3.05192 13.5167 3.00465 13.4971C2.95737 13.4774 2.90668 13.4673 2.8555 13.4673C2.80431 13.4673 2.75362 13.4774 2.70635 13.4971C2.65907 13.5167 2.61613 13.5455 2.58 13.5817L0.379997 15.7817C0.343744 15.8179 0.31498 15.8608 0.295354 15.9081C0.275728 15.9553 0.265625 16.006 0.265625 16.0572C0.265625 16.1084 0.275728 16.1591 0.295354 16.2064C0.31498 16.2536 0.343744 16.2966 0.379997 16.3327L4.764 20.7077C4.83694 20.7806 4.93586 20.8216 5.039 20.8216C5.14213 20.8216 5.24105 20.7806 5.314 20.7077L7.514 18.5147C7.55025 18.4786 7.57901 18.4356 7.59864 18.3884C7.61827 18.3411 7.62837 18.2904 7.62837 18.2392C7.62837 18.188 7.61827 18.1373 7.59864 18.0901C7.57901 18.0428 7.55025 17.9998 7.514 17.9637L7.157 17.6067C7.3366 17.4027 7.5558 17.2373 7.80127 17.1206C8.04675 17.0039 8.31339 16.9382 8.585 16.9277H13.841C14.5087 16.9311 15.1631 16.7418 15.726 16.3827C17.6368 15.2873 19.1613 13.6269 20.09 11.6297C20.178 11.4035 20.2107 11.1595 20.1852 10.9181C20.1598 10.6766 20.077 10.4448 19.9437 10.2419C19.8104 10.0391 19.6305 9.87099 19.419 9.75179C19.2075 9.63259 18.9706 9.5657 18.728 9.55671ZM5.035 19.8827L1.204 16.0567L2.856 14.4047L6.686 18.2347L5.035 19.8827ZM19.369 11.3417C18.4976 13.1867 17.0794 14.7188 15.307 15.7297C14.8695 16.0077 14.3613 16.1538 13.843 16.1507H8.587C8.21319 16.1595 7.84503 16.2438 7.50461 16.3985C7.16419 16.5531 6.85853 16.775 6.606 17.0507L3.806 14.2507C4.115 13.6157 5.729 11.4787 7.47 11.4787C8.04507 11.4681 8.61158 11.6191 9.105 11.9147C9.43303 12.121 9.8089 12.2388 10.196 12.2567H14.096C14.2976 12.2639 14.4886 12.3491 14.6287 12.4943C14.7688 12.6395 14.8471 12.8334 14.8471 13.0352C14.8471 13.237 14.7688 13.4309 14.6287 13.5761C14.4886 13.7213 14.2976 13.8065 14.096 13.8137H10.196C10.0927 13.8137 9.99362 13.8547 9.92058 13.9278C9.84753 14.0008 9.8065 14.0999 9.8065 14.2032C9.8065 14.3065 9.84753 14.4056 9.92058 14.4786C9.99362 14.5517 10.0927 14.5927 10.196 14.5927H14.096C14.495 14.5922 14.8786 14.4388 15.1678 14.1641C15.4571 13.8893 15.63 13.5141 15.651 13.1157C16.707 12.651 17.5494 11.8061 18.011 10.7487C18.0979 10.5807 18.2455 10.452 18.4238 10.3886C18.602 10.3253 18.7977 10.332 18.9712 10.4075C19.1447 10.483 19.283 10.6216 19.3582 10.7952C19.4333 10.9689 19.4397 11.1646 19.376 11.3427L19.369 11.3417Z" fill="#00BA00"/>
<path d="M5.058 17.7127L4.507 17.1617C4.43393 17.0888 4.33488 17.0479 4.23165 17.048C4.12841 17.048 4.02943 17.0891 3.9565 17.1622C3.88356 17.2353 3.84264 17.3343 3.84274 17.4376C3.84283 17.5408 3.88393 17.6398 3.95699 17.7127L4.508 18.2637C4.58106 18.3366 4.68011 18.3776 4.78335 18.3775C4.88659 18.3774 4.98556 18.3363 5.0585 18.2632C5.13143 18.1902 5.17235 18.0911 5.17226 17.9879C5.17216 17.8846 5.13107 17.7856 5.058 17.7127Z" fill="#00BA00"/>
</svg>
