<svg width="39" height="34" viewBox="0 0 39 34" fill="none" xmlns="http://www.w3.org/2000/svg">
<path d="M3.7079 17.4601C3.71517 17.4674 3.72244 17.4747 3.72971 17.4819L7.72862 21.2627C6.89976 22.5787 7.05244 24.3455 8.20122 25.4943C8.85559 26.1487 9.70626 26.4758 10.5569 26.4904C10.586 27.3629 10.935 28.2281 11.6039 28.897C12.2656 29.5586 13.1453 29.9294 14.0832 29.944C14.0978 30.8456 14.4468 31.7326 15.1302 32.4233C16.4608 33.812 18.8601 33.812 20.1979 32.4233L22.3719 30.2494L22.859 30.7365C24.2696 32.147 26.5744 32.147 27.9849 30.7365L28.014 30.7074C28.6974 30.024 29.0464 29.1369 29.0755 28.2354C30.0134 28.2426 30.9441 27.8864 31.6566 27.1738L31.6857 27.1448C32.3619 26.4686 32.74 25.5743 32.7472 24.6145C33.6634 24.6073 34.5722 24.251 35.2702 23.553L35.2993 23.5239C36.7098 22.1134 36.7098 19.8086 35.2993 18.3981L34.9285 18.0272L35.1175 17.8382C44.1841 7.98635 30.7042 -5.47906 20.8596 3.58028L18.9983 5.44159L17.3333 3.82022C13.567 0.0757852 7.4596 0.0757852 3.7079 3.82749C-0.0510712 7.58646 -0.0510712 13.7012 3.7079 17.4601ZM33.7215 22.0116C33.1544 22.5787 32.2383 22.5787 31.6784 22.0116L29.679 20.0122C29.1191 19.4741 29.1191 18.5071 29.679 17.9691L29.7081 17.94C30.2461 17.3801 31.2131 17.3801 31.7511 17.94L33.7506 19.9394C34.3177 20.5066 34.3177 21.4227 33.7506 21.9825L33.7215 22.0116ZM28.0576 25.6324L24.7858 22.3606C24.2259 21.8226 24.2259 20.8556 24.7858 20.3175L24.8149 20.2884C25.382 19.7213 26.2981 19.7213 26.8579 20.2884L28.123 21.5536L30.1225 23.553C30.6823 24.091 30.6823 25.0581 30.1225 25.5961L30.0934 25.6252C29.5408 26.1923 28.6247 26.1923 28.0576 25.6324ZM24.3859 29.1951L23.0917 27.9009C22.5318 27.3629 22.5318 26.3959 23.0917 25.8578L23.1208 25.8288C23.6879 25.2616 24.604 25.2616 25.1639 25.8288L26.458 27.1229C27.0252 27.6901 27.0252 28.6062 26.458 29.166L26.429 29.1951C25.8691 29.7549 24.953 29.7549 24.3859 29.1951ZM9.74262 22.2152L17.2242 14.7336C17.2606 14.6972 17.326 14.6972 17.3624 14.7336L18.5693 15.9405C20.0234 17.4601 22.6482 17.4601 24.1023 15.9405C25.6365 14.4719 25.6146 11.8108 24.0587 10.3639L20.5615 6.96845L22.401 5.12895C25.4838 2.04616 30.4933 2.04616 33.5761 5.12895C36.6589 8.21174 36.6589 13.2213 33.5761 16.3041L33.3871 16.4931L33.2925 16.3986C31.9402 14.9953 29.5118 14.9953 28.1667 16.3986L28.1376 16.4277C27.7013 16.8639 27.396 17.3874 27.2287 17.9545C25.9127 17.4165 24.3495 17.6782 23.288 18.7398L23.2589 18.7689C22.0084 19.9685 21.8484 22.0625 22.8736 23.4439C22.4082 23.6184 21.9647 23.8947 21.5867 24.2728L21.5576 24.3019C20.4306 25.3925 20.1689 27.232 20.9323 28.5989L18.6565 30.8746C18.133 31.4199 17.1951 31.4199 16.6716 30.8746C16.1191 30.3221 16.1263 29.4278 16.6789 28.8825L18.7002 26.8612C19.1291 26.4322 19.1291 25.7488 18.7002 25.3198C18.2712 24.8908 17.5877 24.8908 17.1588 25.3198L15.1302 27.3483C14.6067 27.8936 13.6688 27.8936 13.1453 27.3483C12.6 26.803 12.6 25.916 13.1453 25.3634L15.1884 23.3203C15.6174 22.8914 15.6174 22.2079 15.1884 21.7789C14.7594 21.35 14.076 21.35 13.647 21.7789C13.647 21.7789 11.4949 23.9311 11.4876 23.9384C11.0077 24.4182 10.2298 24.4182 9.74989 23.9384C9.26275 23.473 9.26275 22.6951 9.74262 22.2152ZM5.2493 5.37616C8.15759 2.46786 12.8981 2.46786 15.8064 5.3907L22.5391 11.9344C22.8736 12.2615 23.0626 12.6978 23.0699 13.1631C23.0844 14.7118 21.2086 15.4898 20.1107 14.3991L18.9037 13.1922C18.0531 12.3052 16.5335 12.3052 15.6828 13.1922L9.21185 19.6632L5.24203 15.9042C2.341 13.0032 2.341 8.27718 5.2493 5.37616Z" fill="#FF4656"/>
</svg>
