<svg width="54" height="54" viewBox="0 0 54 54" fill="none" xmlns="http://www.w3.org/2000/svg">
<path d="M46 0H8C3.58172 0 0 3.58172 0 8V46C0 50.4183 3.58172 54 8 54H46C50.4183 54 54 50.4183 54 46V8C54 3.58172 50.4183 0 46 0Z" fill="#1E1E1E"/>
<path d="M32.6389 45.387C32.4534 45.387 32.2697 45.3504 32.0983 45.2794C31.9269 45.2084 31.7712 45.1043 31.6401 44.9731C31.509 44.8419 31.405 44.6861 31.3341 44.5147C31.2632 44.3432 31.2268 44.1595 31.2269 43.974V37.622H19.9329C17.9862 37.622 16.0585 37.2386 14.26 36.4936C12.4615 35.7486 10.8273 34.6567 9.45074 33.2801C8.0742 31.9036 6.98227 30.2694 6.2373 28.4709C5.49232 26.6724 5.10889 24.7447 5.10889 22.798C5.10889 20.8513 5.49232 18.9236 6.2373 17.1251C6.98227 15.3266 8.0742 13.6924 9.45074 12.3158C10.8273 10.9393 12.4615 9.84738 14.26 9.10241C16.0585 8.35743 17.9862 7.974 19.9329 7.974H32.6389C36.5691 7.9785 40.337 9.54175 43.1161 12.3208C45.8951 15.0999 47.4584 18.8678 47.4629 22.798C47.4629 35.674 41.0899 45.387 32.6389 45.387ZM19.9329 10.798C16.7503 10.798 13.698 12.0623 11.4476 14.3127C9.19717 16.5632 7.93289 19.6154 7.93289 22.798C7.93289 25.9806 9.19717 29.0328 11.4476 31.2833C13.698 33.5337 16.7503 34.798 19.9329 34.798H32.6389C33.0134 34.798 33.3725 34.9468 33.6373 35.2116C33.9021 35.4764 34.0509 35.8355 34.0509 36.21V42.434C40.0909 41.317 44.6399 33.093 44.6399 22.798C44.6362 19.6165 43.3707 16.5664 41.1211 14.3168C38.8714 12.0672 35.8213 10.8017 32.6399 10.798H19.9329Z" fill="#E2A3FF"/>
<path d="M15.6979 29.151C15.3234 29.151 14.9643 29.0022 14.6995 28.7374C14.4347 28.4726 14.2859 28.1135 14.2859 27.739V17.857C14.2859 17.4825 14.4347 17.1234 14.6995 16.8586C14.9643 16.5938 15.3234 16.445 15.6979 16.445C16.0724 16.445 16.4315 16.5938 16.6963 16.8586C16.9611 17.1234 17.1099 17.4825 17.1099 17.857V27.74C17.1096 28.1143 16.9607 28.4732 16.696 28.7378C16.4312 29.0024 16.0722 29.151 15.6979 29.151Z" fill="#E2A3FF"/>
<path d="M24.1688 29.151C23.7944 29.151 23.4352 29.0022 23.1704 28.7374C22.9056 28.4726 22.7568 28.1135 22.7568 27.739V17.857C22.7568 17.4825 22.9056 17.1234 23.1704 16.8586C23.4352 16.5938 23.7944 16.445 24.1688 16.445C24.5433 16.445 24.9025 16.5938 25.1673 16.8586C25.4321 17.1234 25.5808 17.4825 25.5808 17.857V27.74C25.5806 28.1143 25.4317 28.4732 25.1669 28.7378C24.9021 29.0024 24.5431 29.151 24.1688 29.151Z" fill="#E2A3FF"/>
<path d="M24.1689 24.21H15.6979C15.3234 24.21 14.9643 24.0612 14.6995 23.7964C14.4347 23.5316 14.2859 23.1725 14.2859 22.798C14.2859 22.4235 14.4347 22.0644 14.6995 21.7996C14.9643 21.5347 15.3234 21.386 15.6979 21.386H24.1689C24.5434 21.386 24.9025 21.5347 25.1673 21.7996C25.4321 22.0644 25.5809 22.4235 25.5809 22.798C25.5809 23.1725 25.4321 23.5316 25.1673 23.7964C24.9025 24.0612 24.5434 24.21 24.1689 24.21Z" fill="#E2A3FF"/>
<path d="M29.11 29.151C28.7355 29.151 28.3764 29.0022 28.1116 28.7374C27.8468 28.4726 27.698 28.1135 27.698 27.739V22.092C27.698 21.7175 27.8468 21.3584 28.1116 21.0936C28.3764 20.8288 28.7355 20.68 29.11 20.68C29.4845 20.68 29.8436 20.8288 30.1084 21.0936C30.3732 21.3584 30.522 21.7175 30.522 22.092V27.739C30.522 28.1135 30.3732 28.4726 30.1084 28.7374C29.8436 29.0022 29.4845 29.151 29.11 29.151Z" fill="#E2A3FF"/>
<path d="M35.4628 23.504C35.0883 23.504 34.7291 23.3552 34.4643 23.0904C34.1995 22.8256 34.0508 22.4665 34.0508 22.092V17.857C34.0508 17.4825 34.1995 17.1234 34.4643 16.8586C34.7291 16.5938 35.0883 16.445 35.4628 16.445C35.8373 16.445 36.1964 16.5938 36.4612 16.8586C36.726 17.1234 36.8748 17.4825 36.8748 17.857V22.092C36.8748 22.4665 36.726 22.8256 36.4612 23.0904C36.1964 23.3552 35.8373 23.504 35.4628 23.504Z" fill="#E2A3FF"/>
<path d="M35.4628 29.152C35.0883 29.152 34.7291 29.0032 34.4643 28.7384C34.1995 28.4736 34.0508 28.1145 34.0508 27.74V27.034C34.0508 26.6595 34.1995 26.3004 34.4643 26.0356C34.7291 25.7708 35.0883 25.622 35.4628 25.622C35.8373 25.622 36.1964 25.7708 36.4612 26.0356C36.726 26.3004 36.8748 26.6595 36.8748 27.034V27.74C36.8748 28.1145 36.726 28.4736 36.4612 28.7384C36.1964 29.0032 35.8373 29.152 35.4628 29.152Z" fill="#E2A3FF"/>
<path d="M29.11 19.975C28.7355 19.975 28.3764 19.8262 28.1116 19.5614C27.8468 19.2966 27.698 18.9375 27.698 18.563V17.857C27.698 17.4825 27.8468 17.1234 28.1116 16.8586C28.3764 16.5938 28.7355 16.445 29.11 16.445C29.4845 16.445 29.8436 16.5938 30.1084 16.8586C30.3732 17.1234 30.522 17.4825 30.522 17.857V18.563C30.522 18.9375 30.3732 19.2966 30.1084 19.5614C29.8436 19.8262 29.4845 19.975 29.11 19.975Z" fill="#E2A3FF"/>
</svg>
