<svg width="69" height="12" viewBox="0 0 69 12" fill="none" xmlns="http://www.w3.org/2000/svg">
<path d="M0.700012 11.2755V1.36861H2.47334V11.2755H0.700012Z" fill="#00EBBD"/>
<path d="M9.02558 3.63305C10.7716 3.63305 12.0675 4.6662 12.0675 6.9448V11.2755H10.3624V7.17124C10.3624 5.82673 9.72126 5.1757 8.62999 5.1757C7.41594 5.1757 6.59749 5.93995 6.59749 7.45429V11.2755H4.89237V3.71797H6.51564V4.69451C7.07492 4.00102 7.96158 3.63305 9.02558 3.63305Z" fill="#00EBBD"/>
<path d="M19.7263 0.774192H21.4314V11.2755H19.7945V10.299C19.2215 11.0208 18.3758 11.3746 17.38 11.3746C15.2657 11.3746 13.697 9.84611 13.697 7.49675C13.697 5.1474 15.2657 3.63305 17.38 3.63305C18.3212 3.63305 19.1533 3.95856 19.7263 4.65205V0.774192ZM17.5846 9.86026C18.8123 9.86026 19.7535 8.94033 19.7535 7.49675C19.7535 6.05317 18.8123 5.13324 17.5846 5.13324C16.3569 5.13324 15.4157 6.05317 15.4157 7.49675C15.4157 8.94033 16.3569 9.86026 17.5846 9.86026Z" fill="#00EBBD"/>
<path d="M24.5214 2.47252C23.8939 2.47252 23.4301 2.00548 23.4301 1.41107C23.4301 0.81665 23.8939 0.349609 24.5214 0.349609C25.1489 0.349609 25.6126 0.788344 25.6126 1.36861C25.6126 1.99133 25.1625 2.47252 24.5214 2.47252ZM23.662 11.2755V3.71797H25.3671V11.2755H23.662Z" fill="#00EBBD"/>
<path d="M32.7886 3.71797H34.4256L31.3018 11.2755H29.5421L26.4183 3.71797H28.1916L30.456 9.32246L32.7886 3.71797Z" fill="#00EBBD"/>
<path d="M36.3506 2.47252C35.7232 2.47252 35.2594 2.00548 35.2594 1.41107C35.2594 0.81665 35.7232 0.349609 36.3506 0.349609C36.9781 0.349609 37.4419 0.788344 37.4419 1.36861C37.4419 1.99133 36.9918 2.47252 36.3506 2.47252ZM35.4913 11.2755V3.71797H37.1964V11.2755H35.4913Z" fill="#00EBBD"/>
<path d="M44.8634 0.774192H46.5686V11.2755H44.9316V10.299C44.3587 11.0208 43.513 11.3746 42.5172 11.3746C40.4029 11.3746 38.8341 9.84611 38.8341 7.49675C38.8341 5.1474 40.4029 3.63305 42.5172 3.63305C43.4584 3.63305 44.2905 3.95856 44.8634 4.65205V0.774192ZM42.7218 9.86026C43.9495 9.86026 44.8907 8.94033 44.8907 7.49675C44.8907 6.05317 43.9495 5.13324 42.7218 5.13324C41.4941 5.13324 40.5529 6.05317 40.5529 7.49675C40.5529 8.94033 41.4941 9.86026 42.7218 9.86026Z" fill="#00EBBD"/>
<path d="M54.1464 3.71797H55.8516V11.2755H54.2283V10.3132C53.6826 11.0066 52.8233 11.3746 51.882 11.3746C50.0132 11.3746 48.7446 10.3132 48.7446 8.03456V3.71797H50.4497V7.79396C50.4497 9.16678 51.0772 9.81781 52.1549 9.81781C53.3416 9.81781 54.1464 9.05356 54.1464 7.53921V3.71797Z" fill="#00EBBD"/>
<path d="M60.8668 3.63305C62.9675 3.63305 64.1816 4.6662 64.1816 6.84573V11.2755H62.572V10.3556C62.1627 11.0066 61.3716 11.3746 60.2803 11.3746C58.6161 11.3746 57.5657 10.4264 57.5657 9.11017C57.5657 7.85057 58.3842 6.85988 60.594 6.85988H62.4765V6.74666C62.4765 5.71351 61.8763 5.10494 60.6622 5.10494C59.8438 5.10494 58.998 5.38799 58.4524 5.85503L57.784 4.56713C58.5615 3.94441 59.6937 3.63305 60.8668 3.63305ZM60.6349 10.0867C61.467 10.0867 62.19 9.69043 62.4765 8.91203V8.03456H60.7168C59.5573 8.03456 59.2436 8.48745 59.2436 9.0394C59.2436 9.67628 59.7619 10.0867 60.6349 10.0867Z" fill="#00EBBD"/>
<path d="M66.3699 11.2755V0.774192H68.075V11.2755H66.3699Z" fill="#00EBBD"/>
</svg>
