<svg width="27" height="45" viewBox="0 0 27 45" fill="none" xmlns="http://www.w3.org/2000/svg">
<path d="M23.6287 24.1896L19.762 20.3228L22.3337 17.7146C22.6729 17.3758 22.942 16.9735 23.1255 16.5306C23.3091 16.0878 23.4036 15.6131 23.4036 15.1337C23.4036 14.6543 23.3091 14.1796 23.1255 13.7368C22.942 13.2939 22.6729 12.8916 22.3337 12.5528C21.6398 11.89 20.717 11.5201 19.7574 11.5201C18.7977 11.5201 17.875 11.89 17.1811 12.5528L14.6458 15.161L12.7124 13.2277C12.0169 12.5642 11.0926 12.1941 10.1315 12.1941C9.17031 12.1941 8.24606 12.5642 7.55058 13.2277C7.21141 13.5664 6.94235 13.9688 6.75877 14.4116C6.57519 14.8545 6.4807 15.3292 6.4807 15.8085C6.4807 16.2879 6.57519 16.7626 6.75877 17.2055C6.94235 17.6483 7.21141 18.0507 7.55058 18.3894C8.53552 19.3653 7.80594 18.3894 6.36501 19.7848C5.84449 20.3102 5.49596 20.9814 5.36567 21.7095C5.23537 22.4375 5.32945 23.188 5.63543 23.8613C5.00879 23.9628 4.42022 24.2285 3.92961 24.6313C3.439 25.0341 3.06387 25.5598 2.8424 26.1547C2.62093 26.7496 2.56102 27.3926 2.66876 28.0182C2.77651 28.6438 3.04807 29.2296 3.45581 29.7162C2.83561 29.8749 2.26809 30.194 1.81028 30.6415C1.35246 31.089 1.02047 31.6491 0.847652 32.2655C0.674833 32.8819 0.667276 33.5329 0.82574 34.1532C0.984203 34.7735 1.30311 35.3411 1.75041 35.7991C6.62037 40.7146 9.01887 44.1619 14.6458 44.1619C19.2056 44.1619 21.5859 41.7634 23.6743 39.675C24.6889 38.6556 25.4925 37.4463 26.0393 36.1161C26.5862 34.7859 26.8654 33.361 26.8612 31.9228C26.857 30.4847 26.5693 29.0614 26.0147 27.7345C25.46 26.4076 24.6492 25.203 23.6287 24.1896ZM18.4669 13.8752C18.7215 13.6185 19.0466 13.4433 19.401 13.3717C19.7553 13.3002 20.123 13.3355 20.4572 13.4733C20.7914 13.6111 21.0771 13.8451 21.2781 14.1456C21.4791 14.4461 21.5862 14.7995 21.5859 15.161C21.5859 16.2463 20.8837 16.6111 18.4669 19.0278L15.8861 16.4561L18.4669 13.8752ZM22.3428 38.38L21.0296 39.6659C19.3194 41.3756 17.0002 42.336 14.5819 42.336C12.1637 42.336 9.84446 41.3756 8.13425 39.6659C2.66239 34.194 2.44351 34.194 2.44351 33.2182C2.44502 32.8586 2.55281 32.5074 2.75333 32.2089C2.95385 31.9103 3.23815 31.6777 3.5705 31.5403C3.90284 31.4029 4.26839 31.3668 4.62119 31.4365C4.97399 31.5063 5.2983 31.6788 5.55335 31.9323C10.3686 36.7475 10.1771 36.7111 10.7151 36.7111C10.8955 36.7103 11.0716 36.6561 11.2211 36.5553C11.3707 36.4544 11.487 36.3115 11.5553 36.1446C11.6236 35.9777 11.6409 35.7942 11.605 35.6175C11.5691 35.4407 11.4816 35.2786 11.3535 35.1516L4.90585 28.7039C4.73627 28.5345 4.60173 28.3333 4.50994 28.1119C4.41816 27.8905 4.37091 27.6532 4.37091 27.4135C4.37091 27.1738 4.41816 26.9364 4.50994 26.715C4.60173 26.4936 4.73627 26.2924 4.90585 26.123C5.25464 25.7933 5.71637 25.6097 6.1963 25.6097C6.67622 25.6097 7.13795 25.7933 7.48675 26.123L13.9344 32.5707C14.1049 32.7424 14.3367 32.8394 14.5787 32.8402C14.8207 32.8411 15.0531 32.7458 15.2249 32.5752C15.3966 32.4047 15.4936 32.173 15.4944 31.931C15.4953 31.689 15.3999 31.4565 15.2294 31.2848L7.59618 23.6516C7.25394 23.3093 7.06166 22.8451 7.06166 22.3611C7.06166 21.8771 7.25394 21.4129 7.59618 21.0707C7.93843 20.7284 8.40262 20.5361 8.88663 20.5361C9.37064 20.5361 9.83483 20.7284 10.1771 21.0707C18.3849 29.324 17.9106 28.9684 18.4487 28.9684C18.628 28.9676 18.8031 28.9141 18.9521 28.8144C19.1011 28.7147 19.2174 28.5733 19.2865 28.4079C19.3556 28.2424 19.3744 28.0603 19.3405 27.8843C19.3067 27.7082 19.2217 27.546 19.0962 27.418L8.79999 17.0944C8.63041 16.925 8.49587 16.7239 8.40408 16.5025C8.3123 16.281 8.26505 16.0437 8.26505 15.804C8.26505 15.5643 8.3123 15.3269 8.40408 15.1055C8.49587 14.8841 8.63041 14.6829 8.79999 14.5135C9.14173 14.1738 9.60402 13.9831 10.0859 13.9831C10.5677 13.9831 11.03 14.1738 11.3718 14.5135L22.3155 25.4573C23.1679 26.3028 23.8451 27.3083 24.308 28.4161C24.7709 29.524 25.0105 30.7123 25.013 31.9129C25.0156 33.1136 24.781 34.3029 24.3228 35.4127C23.8646 36.5225 23.1917 37.5309 22.3428 38.38Z" fill="#FF4656"/>
<path d="M13.9983 11.1757C14.0831 11.2612 14.1839 11.329 14.2951 11.3753C14.4062 11.4216 14.5254 11.4455 14.6458 11.4455C14.7662 11.4455 14.8854 11.4216 14.9965 11.3753C15.1076 11.329 15.2085 11.2612 15.2933 11.1757L19.99 6.47902C23.2457 3.22326 18.5126 -2.13004 14.6458 1.73674L14.354 1.43578C13.6852 0.76701 12.7781 0.391297 11.8323 0.391297C10.8866 0.391297 9.9795 0.76701 9.31072 1.43578C8.64195 2.10456 8.26624 3.01161 8.26624 3.9574C8.26624 4.90319 8.64195 5.81024 9.31072 6.47902L13.9983 11.1757ZM12.3202 2.28392C12.8674 2.44808 13.0589 2.72167 13.9983 3.67013C14.0831 3.75561 14.1839 3.82345 14.2951 3.86975C14.4062 3.91605 14.5254 3.93989 14.6458 3.93989C14.7662 3.93989 14.8854 3.91605 14.9965 3.86975C15.1076 3.82345 15.2085 3.75561 15.2933 3.67013L16.2053 2.75815C16.533 2.43162 16.977 2.24866 17.4397 2.24952C17.9023 2.25037 18.3456 2.43498 18.6722 2.76271C18.9987 3.09045 19.1817 3.53447 19.1808 3.9971C19.1799 4.45974 18.9953 4.90308 18.6676 5.22961L14.6458 9.24231C10.323 4.9469 10.0859 4.9469 10.0859 3.96196C10.0867 3.69115 10.1502 3.42421 10.2716 3.18212C10.393 2.94004 10.5688 2.7294 10.7854 2.56677C11.0019 2.40415 11.2532 2.29396 11.5196 2.24488C11.7859 2.1958 12.06 2.20917 12.3202 2.28392Z" fill="#FF4656"/>
</svg>
