<svg width="43" height="31" viewBox="0 0 43 31" fill="none" xmlns="http://www.w3.org/2000/svg">
<path d="M42.919 13.7613C43.2194 13.0322 42.6427 12.1534 41.8699 12.1762H25.8754C25.4122 12.1762 24.9959 12.4677 24.8262 12.911L23.0774 17.4767C21.8621 15.681 20.138 14.3437 18.1606 13.6318C20.8057 12.6637 22.7057 10.0449 22.6953 6.973C22.3315 -2.33428 9.46607 -2.33087 9.13428 7.02257C9.14345 9.68846 10.5974 12.014 12.7225 13.2C6.82307 13.9892 2.61904 18.1231 0.219867 25.5395C-0.695716 28.115 1.37746 31.0813 4.04595 30.9983C4.04587 30.9984 36.4529 30.9984 36.4529 30.9984C38.1299 30.9984 39.494 29.5952 39.494 27.8704C39.494 26.8272 38.99 25.9076 38.2243 25.3391C38.8644 24.9537 42.5076 14.6242 42.919 13.7613ZM15.8989 11.7167C13.4213 11.7076 11.3986 9.59806 11.3897 7.01453C11.3269 2.88956 16.3022 0.685714 19.0986 3.645C21.9625 6.51319 19.9031 11.7802 15.8989 11.7167ZM13.378 23.4598H9.6768L9.90589 23.0977C10.6937 21.8067 8.84355 20.5681 8.01525 21.8328C8.01525 21.8327 7.22748 23.0788 7.22748 23.0788C6.47903 24.182 7.34432 25.823 8.65153 25.7796C8.65145 25.7796 13.378 25.7796 13.378 25.7796C14.1548 25.7796 14.7869 26.4298 14.7869 27.2292C14.7869 28.0282 14.1548 28.6784 13.378 28.6784H4.0458C2.87301 28.7144 1.95547 27.4057 2.36011 26.272C4.73305 18.9362 8.8237 15.3702 14.8656 15.3702C17.9785 15.3702 20.775 17.2877 22.0116 20.2592L20.2942 24.7428H16.1107C15.4388 23.9624 14.4688 23.4598 13.378 23.4598ZM36.4528 28.6785H16.759C16.9515 28.1877 17.0831 27.6193 17.0261 27.0627C19.642 27.0629 33.5383 27.0626 36.4528 27.0627C37.4775 27.0792 37.4913 28.659 36.4528 28.6785ZM36.8927 23.166C36.5255 24.124 35.6415 24.7429 34.6405 24.7429H22.7183L26.6434 14.4962H40.2135L36.8927 23.166ZM30.1416 7.69573C29.112 8.79166 30.6697 10.3961 31.7363 9.33591C32.7968 8.24509 34.5226 8.24586 35.5824 9.33591C36.0229 9.78899 36.7366 9.78899 37.1771 9.33591C37.6176 8.88322 37.6176 8.14843 37.1771 7.69565C35.2373 5.70053 32.0814 5.69975 30.1416 7.69573ZM29.4815 6.0506C31.7858 3.68119 35.5336 3.68197 37.8373 6.0506C38.8999 7.11034 40.4641 5.50673 39.4319 4.41034C36.2488 1.13593 31.0692 1.13516 27.8868 4.41034C26.8581 5.50596 28.4138 7.11096 29.4815 6.0506Z" fill="#00EBBD"/>
</svg>
