<svg width="32" height="36" viewBox="0 0 32 36" fill="none" xmlns="http://www.w3.org/2000/svg">
<path d="M21.7814 23.7543C25.5477 17.8443 25.0743 18.5816 25.1828 18.4276C26.5541 16.4935 27.2788 14.2171 27.2788 11.8445C27.2788 5.55241 22.1729 0.369141 15.8726 0.369141C9.59277 0.369141 4.46633 5.54218 4.46633 11.8445C4.46633 14.2156 5.20628 16.5515 6.62245 18.5117L9.96358 23.7544C6.39135 24.3034 0.318604 25.9393 0.318604 29.5415C0.318604 30.8546 1.17566 32.7259 5.25868 34.1841C8.10968 35.2023 11.8791 35.763 15.8726 35.763C23.3402 35.763 31.4265 33.6565 31.4265 29.5415C31.4265 25.9387 25.3609 24.3045 21.7814 23.7543ZM8.35474 17.371C8.34334 17.3532 8.33145 17.3357 8.31901 17.3186C7.14057 15.6974 6.54019 13.776 6.54019 11.8445C6.54019 6.65861 10.716 2.443 15.8726 2.443C21.0184 2.443 25.2049 6.66047 25.2049 11.8445C25.2049 13.7791 24.6159 15.6353 23.5012 17.2138C23.4013 17.3456 23.9225 16.5359 15.8726 29.1674L8.35474 17.371ZM15.8726 33.6892C7.71579 33.6892 2.39246 31.2916 2.39246 29.5415C2.39246 28.3652 5.12775 26.431 11.189 25.6771L14.9981 31.6542C15.1885 31.9529 15.5182 32.1338 15.8725 32.1338C16.2268 32.1338 16.5566 31.9529 16.7469 31.6542L20.556 25.6771C26.6173 26.431 29.3527 28.3652 29.3527 29.5415C29.3527 31.2767 24.0772 33.6892 15.8726 33.6892Z" fill="#B9FF00"/>
<path d="M15.8726 6.66016C13.0138 6.66016 10.688 8.98599 10.688 11.8448C10.688 14.7036 13.0138 17.0295 15.8726 17.0295C18.7315 17.0295 21.0573 14.7036 21.0573 11.8448C21.0573 8.98599 18.7315 6.66016 15.8726 6.66016ZM15.8726 14.9556C14.1574 14.9556 12.7618 13.5601 12.7618 11.8448C12.7618 10.1295 14.1574 8.73402 15.8726 8.73402C17.5879 8.73402 18.9834 10.1295 18.9834 11.8448C18.9834 13.5601 17.5879 14.9556 15.8726 14.9556Z" fill="#B9FF00"/>
</svg>
