<svg width="38" height="33" viewBox="0 0 38 33" fill="none" xmlns="http://www.w3.org/2000/svg">
<path d="M4.76753 8.25883C6.93889 8.25883 8.69986 6.4904 8.69986 4.32651C8.69986 2.16261 6.93889 0.386719 4.76753 0.386719C2.59617 0.386719 0.835205 2.15515 0.835205 4.31904C0.835205 6.48294 2.60363 8.25883 4.76753 8.25883ZM4.76753 2.21484C5.93156 2.21484 6.87174 3.16248 6.87174 4.31904C6.87174 5.47561 5.9241 6.42325 4.76753 6.42325C3.61096 6.42325 2.66333 5.47561 2.66333 4.31904C2.66333 3.16248 3.61096 2.21484 4.76753 2.21484Z" fill="#E2A3FF"/>
<path d="M4.76753 20.4066C6.93889 20.4066 8.69986 18.6382 8.69986 16.4743C8.69986 14.3104 6.93889 12.542 4.76753 12.542C2.59617 12.542 0.835205 14.303 0.835205 16.4743C0.835205 18.6457 2.60363 20.4066 4.76753 20.4066ZM4.76753 14.3701C5.93156 14.3701 6.87174 15.3178 6.87174 16.4743C6.87174 17.6309 5.9241 18.5785 4.76753 18.5785C3.61096 18.5785 2.66333 17.6383 2.66333 16.4743C2.66333 15.3103 3.61096 14.3701 4.76753 14.3701Z" fill="#E2A3FF"/>
<path d="M4.76753 32.5619C6.93889 32.5619 8.69986 30.7935 8.69986 28.6296C8.69986 26.4582 6.93143 24.6973 4.76753 24.6973C2.60363 24.6973 0.835205 26.4657 0.835205 28.6296C0.835205 30.7935 2.60363 32.5619 4.76753 32.5619ZM4.76753 26.5179C5.93156 26.5179 6.87174 27.4656 6.87174 28.6221C6.87174 29.7862 5.9241 30.7263 4.76753 30.7263C3.61096 30.7263 2.66333 29.7787 2.66333 28.6221C2.66333 27.4656 3.61096 26.5179 4.76753 26.5179Z" fill="#E2A3FF"/>
<path d="M13.9603 5.23695H36.4574C36.9647 5.23695 37.3751 4.82656 37.3751 4.31916C37.3751 3.81176 36.9647 3.40137 36.4574 3.40137H13.9603C13.4529 3.40137 13.0425 3.81176 13.0425 4.31916C13.0425 4.82656 13.4529 5.23695 13.9603 5.23695Z" fill="#E2A3FF"/>
<path d="M13.9603 17.3922H36.4574C36.9647 17.3922 37.3751 16.9818 37.3751 16.4744C37.3751 15.967 36.9647 15.5566 36.4574 15.5566H13.9603C13.4529 15.5566 13.0425 15.967 13.0425 16.4744C13.0425 16.9818 13.4529 17.3922 13.9603 17.3922Z" fill="#E2A3FF"/>
<path d="M13.9603 29.5407H36.4574C36.9647 29.5407 37.3751 29.1303 37.3751 28.6229C37.3751 28.1155 36.9647 27.7051 36.4574 27.7051H13.9603C13.4529 27.7051 13.0425 28.1155 13.0425 28.6229C13.0425 29.1303 13.4529 29.5407 13.9603 29.5407Z" fill="#E2A3FF"/>
</svg>
