<svg width="30" height="30" viewBox="0 0 39 39" fill="none" xmlns="http://www.w3.org/2000/svg">
<path d="M22.9958 7.22168H8.59823C7.93595 7.22168 7.39844 7.75919 7.39844 8.42148C7.39844 9.08377 7.93595 9.62127 8.59823 9.62127H22.9958C23.6581 9.62127 24.1956 9.08377 24.1956 8.42148C24.1956 7.75919 23.6581 7.22168 22.9958 7.22168Z" fill="#E2A3FF"/>
<path d="M18.1966 12.0215H8.59823C7.93595 12.0215 7.39844 12.559 7.39844 13.2213C7.39844 13.8836 7.93595 14.4211 8.59823 14.4211H18.1966C18.8589 14.4211 19.3964 13.8836 19.3964 13.2213C19.3964 12.559 18.8589 12.0215 18.1966 12.0215Z" fill="#E2A3FF"/>
<path d="M26.5952 0.0234375H4.9989C2.35214 0.0234375 0.199707 2.17587 0.199707 4.82263V28.8186C0.199707 29.2841 0.468462 29.7088 0.89079 29.9056C1.05156 29.98 1.22673 30.0184 1.3995 30.0184C1.67546 30.0184 1.94901 29.9224 2.16737 29.74L9.03262 24.0194H26.5952C29.242 24.0194 31.3944 21.8669 31.3944 19.2202V4.82263C31.3944 2.17587 29.242 0.0234375 26.5952 0.0234375ZM28.9948 19.2202C28.9948 20.5424 27.9198 21.6198 26.5952 21.6198H8.59829C8.31754 21.6198 8.04638 21.7182 7.83042 21.8981L2.5993 26.2582V4.82263C2.5993 3.50045 3.67432 2.42303 4.9989 2.42303H26.5952C27.9198 2.42303 28.9948 3.50045 28.9948 4.82263V19.2202Z" fill="#E2A3FF"/>
<path d="M33.7938 9.62207C33.1315 9.62207 32.594 10.1596 32.594 10.8219C32.594 11.4842 33.1315 12.0217 33.7938 12.0217C35.1184 12.0217 36.1934 13.0991 36.1934 14.4213V34.7194L32.1429 31.48C31.9317 31.312 31.6654 31.2184 31.3942 31.2184H14.597C13.2725 31.2184 12.1974 30.141 12.1974 28.8188V27.619C12.1974 26.9567 11.6599 26.4192 10.9976 26.4192C10.3354 26.4192 9.79785 26.9567 9.79785 27.619V28.8188C9.79785 31.4656 11.9503 33.618 14.597 33.618H30.9719L36.6421 38.1556C36.8605 38.3284 37.1268 38.4172 37.3932 38.4172C37.5684 38.4172 37.7459 38.3788 37.9139 38.2996C38.329 38.0981 38.593 37.6781 38.593 37.2174V14.4213C38.593 11.7745 36.4405 9.62207 33.7938 9.62207Z" fill="#E2A3FF"/>
</svg>
