<svg width="33" height="33" viewBox="0 0 33 33" fill="none" xmlns="http://www.w3.org/2000/svg">
<g clip-path="url(#clip0_209_7746)">
<mask id="mask0_209_7746" style="mask-type:luminance" maskUnits="userSpaceOnUse" x="0" y="0" width="33" height="33">
<path d="M0.375732 0.462891L32.5905 0.462891L32.5905 32.2481H0.375732L0.375732 0.462891Z" fill="white"/>
</mask>
<g mask="url(#mask0_209_7746)">
<path d="M21.8522 13.7431C24.8724 14.0725 27.2214 16.5989 27.2214 19.6665V31.5859C27.2214 31.9517 26.9208 32.2481 26.5502 32.2481C26.1796 32.2481 25.8791 31.9517 25.8791 31.5859V19.6665C25.8791 17.3313 24.1289 15.3994 21.8522 15.0781V22.9774C21.8522 24.4403 20.6504 25.6262 19.1677 25.6262C17.9692 25.6262 16.9102 25.3089 16.0112 24.6734C15.6693 24.4319 15.2592 24.3019 14.8382 24.3019C14.4929 24.3018 14.2157 24.499 14.1169 24.7914C13.968 25.2322 14.0573 25.6617 14.334 25.9688L18.9981 31.1461C19.2445 31.4193 19.2195 31.8379 18.9424 32.0808C18.6654 32.3239 18.2412 32.2992 17.9949 32.0259L14.6038 28.2618C14.5604 28.2704 14.5156 28.2749 14.4697 28.2749H9.10057C7.24727 28.2749 5.74487 26.7927 5.74487 24.964L5.74487 3.77385C5.74487 1.94526 7.24727 0.462891 9.10057 0.462891L18.4965 0.462891C20.3498 0.462891 21.8522 1.94526 21.8522 3.77385L21.8522 13.7431ZM13.3308 26.8487C12.7351 26.1876 12.5428 25.2628 12.8263 24.4235C13.125 23.5395 13.9152 22.9774 14.8058 22.9774C15.5396 22.9775 16.223 23.1941 16.7928 23.5968C17.4576 24.0666 18.2424 24.3018 19.1677 24.3018C19.909 24.3018 20.51 23.7089 20.51 22.9774L20.51 3.77385C20.51 2.67669 19.6085 1.78727 18.4965 1.78727L9.10057 1.78727C7.98859 1.78727 7.08715 2.67669 7.08715 3.77385L7.08715 24.964C7.08715 26.0612 7.98859 26.9506 9.10057 26.9506H13.4226L13.3308 26.8487ZM11.7851 4.43609C11.4145 4.43609 11.114 4.13962 11.114 3.7739C11.114 3.40819 11.4145 3.11171 11.7851 3.11171L15.812 3.11171C16.1826 3.11171 16.4831 3.40819 16.4831 3.7739C16.4831 4.13962 16.1826 4.43609 15.812 4.43609L11.7851 4.43609Z" fill="#00EBBD"/>
</g>
</g>
<defs>
<clipPath id="clip0_209_7746">
<rect width="32.2147" height="31.7852" fill="white" transform="translate(0.375732 0.462891)"/>
</clipPath>
</defs>
</svg>
