<svg width="49" height="35" viewBox="0 0 49 35" fill="none" xmlns="http://www.w3.org/2000/svg">
<path d="M17.2257 29.6807C16.7948 29.6791 16.3805 29.512 16.0659 29.2128C14.5085 27.7105 13.2683 25.902 12.4208 23.8972C11.5733 21.8924 11.1362 19.7333 11.1362 17.5514C11.1362 15.3696 11.5733 13.2105 12.4208 11.2057C13.2683 9.20091 14.5085 7.39233 16.0659 5.89006C16.4016 5.61356 16.828 5.4768 17.259 5.5074C17.69 5.53799 18.0936 5.73366 18.3881 6.05488C18.6826 6.3761 18.8461 6.79892 18.8456 7.2379C18.8451 7.67689 18.6806 8.09933 18.3854 8.41986C17.1731 9.6005 16.2084 11.0181 15.5493 12.5874C14.8903 14.1567 14.5505 15.8453 14.5505 17.5514C14.5505 19.2576 14.8903 20.9461 15.5493 22.5154C16.2084 24.0847 17.1731 25.5024 18.3854 26.683C18.6348 26.9202 18.8083 27.228 18.8835 27.5665C18.9587 27.9051 18.9321 28.2588 18.8071 28.5818C18.6821 28.9048 18.4646 29.1822 18.1826 29.3781C17.9007 29.5741 17.5673 29.6795 17.2257 29.6807ZM10.4037 34.3244C10.7214 33.9998 10.8997 33.5606 10.8997 33.1028C10.8997 32.6451 10.7214 32.2059 10.4037 31.8812C8.49569 30.0318 6.97684 27.8082 5.93909 25.3452C4.90134 22.8821 4.36628 20.2307 4.36628 17.5514C4.36628 14.8722 4.90134 12.2208 5.93909 9.75771C6.97684 7.29463 8.49569 5.07108 10.4037 3.22163C10.7339 2.89764 10.9239 2.45366 10.9319 1.98735C10.9399 1.52105 10.7652 1.07061 10.4464 0.735137C10.1275 0.399664 9.69047 0.206633 9.2315 0.198509C8.77253 0.190386 8.32918 0.367834 7.99898 0.691818C5.75238 2.86677 3.96386 5.48253 2.74181 8.38059C1.51977 11.2786 0.889648 14.3986 0.889648 17.5514C0.889648 20.7042 1.51977 23.8242 2.74181 26.7223C3.96386 29.6203 5.75238 32.2361 7.99898 34.411C8.16309 34.5679 8.35617 34.6902 8.56706 34.7708C8.77795 34.8514 9.00247 34.8888 9.22766 34.8807C9.45284 34.8727 9.67422 34.8194 9.87901 34.7239C10.0838 34.6284 10.2679 34.4926 10.4208 34.3244H10.4037ZM33.479 29.2128C35.0364 27.7105 36.2767 25.902 37.1242 23.8972C37.9717 21.8924 38.4087 19.7333 38.4087 17.5514C38.4087 15.3696 37.9717 13.2105 37.1242 11.2057C36.2767 9.20091 35.0364 7.39233 33.479 5.89006C33.3155 5.73419 33.1234 5.61256 32.9136 5.53212C32.7039 5.45168 32.4806 5.41401 32.2565 5.42125C32.0324 5.42849 31.8119 5.4805 31.6076 5.57432C31.4033 5.66814 31.2191 5.80192 31.0657 5.96803C30.9123 6.13414 30.7926 6.32932 30.7134 6.54244C30.6343 6.75555 30.5972 6.98242 30.6043 7.21009C30.6114 7.43777 30.6626 7.66179 30.755 7.86936C30.8473 8.07693 30.979 8.26399 31.1425 8.41986C32.3613 9.59665 33.3319 11.013 33.9951 12.5828C34.6583 14.1527 35.0003 15.8431 35.0003 17.5514C35.0003 19.2597 34.6583 20.9502 33.9951 22.52C33.3319 24.0898 32.3613 25.5062 31.1425 26.683C30.8132 26.9961 30.6194 27.4289 30.6035 27.8867C30.5875 28.3446 30.7506 28.7902 31.0572 29.1262C31.2182 29.3025 31.4135 29.4429 31.6308 29.5384C31.8481 29.6338 32.0825 29.6823 32.3193 29.6807C32.7501 29.6791 33.1645 29.512 33.479 29.2128ZM41.5289 34.411C43.7821 32.24 45.5765 29.6255 46.8027 26.7269C48.0289 23.8283 48.6613 20.7064 48.6613 17.5514C48.6613 14.3965 48.0289 11.2745 46.8027 8.37596C45.5765 5.47739 43.7821 2.86288 41.5289 0.691818C41.1933 0.415327 40.7669 0.278564 40.3359 0.309159C39.9048 0.339754 39.5013 0.535428 39.2068 0.856645C38.9123 1.17786 38.7487 1.60068 38.7492 2.03967C38.7497 2.47866 38.9142 2.90109 39.2094 3.22163C41.1175 5.07108 42.6363 7.29463 43.6741 9.75771C44.7118 12.2208 45.2469 14.8722 45.2469 17.5514C45.2469 20.2307 44.7118 22.8821 43.6741 25.3452C42.6363 27.8082 41.1175 30.0318 39.2094 31.8812C38.8802 32.1943 38.6864 32.6271 38.6704 33.0849C38.6544 33.5428 38.8176 33.9884 39.1242 34.3244C39.2832 34.4986 39.4758 34.6377 39.6899 34.7331C39.9041 34.8285 40.1353 34.8781 40.3692 34.8789C40.8 34.8774 41.2144 34.7102 41.5289 34.411ZM28.192 17.5514C28.192 16.866 27.9919 16.196 27.6171 15.6261C27.2423 15.0562 26.7096 14.612 26.0863 14.3497C25.463 14.0874 24.7772 14.0188 24.1155 14.1525C23.4539 14.2862 22.8461 14.6163 22.3691 15.101C21.892 15.5856 21.5672 16.2031 21.4356 16.8753C21.3039 17.5476 21.3715 18.2444 21.6297 18.8776C21.8878 19.5109 22.325 20.0521 22.886 20.4329C23.4469 20.8137 24.1064 21.0169 24.781 21.0169C25.6856 21.0169 26.5532 20.6518 27.1929 20.0019C27.8326 19.352 28.192 18.4705 28.192 17.5514Z" fill="#B9FF00"/>
</svg>
