<svg width="46" height="33" viewBox="0 0 46 33" fill="none" xmlns="http://www.w3.org/2000/svg">
<path d="M36.9338 15.5909C39.8244 15.5909 42.1758 13.2608 42.1758 10.3977C42.1758 7.53418 39.8244 5.2041 36.9338 5.2041C34.0437 5.2041 31.6926 7.53382 31.6926 10.3977C31.6926 13.2612 34.0437 15.5909 36.9338 15.5909ZM36.9338 6.66164C39.0209 6.66164 40.7182 8.33767 40.7182 10.3977C40.7182 12.4573 39.0209 14.1333 36.9338 14.1333C34.8475 14.1333 33.1501 12.4573 33.1501 10.3977C33.1501 8.33767 34.8475 6.66164 36.9338 6.66164Z" fill="#00EBBD"/>
<path d="M34.8251 29.9689H43.9667C45.0172 29.9689 45.8716 29.1199 45.8716 28.0762V25.6924C45.8716 20.8123 41.8623 16.8418 36.9338 16.8418C34.9955 16.8418 33.1505 17.4467 31.5997 18.5908C31.2759 18.8299 31.2068 19.2861 31.446 19.6103C31.6851 19.9337 32.1409 20.0028 32.4651 19.764C33.7636 18.8061 35.3087 18.2993 36.9338 18.2993C41.0584 18.2993 44.414 21.6162 44.414 25.6924V28.0762C44.414 28.316 44.2133 28.5114 43.9667 28.5114H34.8247C34.4226 28.5114 34.096 28.8377 34.096 29.2402C34.096 29.6423 34.4226 29.9689 34.8251 29.9689Z" fill="#00EBBD"/>
<path d="M2.59274 29.4178H11.7344C12.1365 29.4178 12.4632 29.0915 12.4632 28.689C12.4632 28.2869 12.1365 27.9602 11.7344 27.9602H2.59239C2.34579 27.9602 2.14509 27.7652 2.14509 27.5254V25.1416C2.14509 21.0647 5.50071 17.7486 9.62531 17.7486C11.348 17.7486 13.0297 18.3418 14.3609 19.4193C14.6733 19.6723 15.132 19.6242 15.3857 19.3114C15.6387 18.9986 15.5911 18.5396 15.2776 18.2862C13.688 16.9999 11.6807 16.291 9.62531 16.291C4.69721 16.291 0.687903 20.2612 0.687903 25.1416V27.5254C0.687903 28.5687 1.54229 29.4178 2.59274 29.4178Z" fill="#00EBBD"/>
<path d="M9.6257 15.2295C12.5159 15.2295 14.8669 12.8998 14.8669 10.0363C14.8669 7.17285 12.5159 4.84277 9.6257 4.84277C6.73517 4.84277 4.38374 7.17249 4.38374 10.0363C4.38374 12.9002 6.73552 15.2295 9.6257 15.2295ZM9.6257 6.30032C11.712 6.30032 13.4094 7.97635 13.4094 10.0363C13.4094 12.0963 11.712 13.772 9.6257 13.772C7.53867 13.772 5.84128 12.0963 5.84128 10.0363C5.84128 7.97635 7.53902 6.30032 9.6257 6.30032Z" fill="#00EBBD"/>
<path d="M13.3887 32.3409H33.1709C34.485 32.3409 35.554 31.2798 35.554 29.9752V26.6225C35.554 19.9219 30.0483 14.4707 23.2798 14.4707C16.5112 14.4707 11.0056 19.9219 11.0056 26.6225V29.9752C11.0056 31.2798 12.0746 32.3409 13.3887 32.3409ZM23.2798 15.9286C29.2441 15.9286 34.0964 20.7261 34.0964 26.6228V29.9756C34.0964 30.4763 33.6811 30.8837 33.1709 30.8837H13.3891C12.8788 30.8837 12.4635 30.4763 12.4635 29.9756V26.6228C12.4632 20.7261 17.3155 15.9286 23.2798 15.9286Z" fill="#00EBBD"/>
<path d="M23.5331 13.6186C27.2467 13.6186 30.2686 10.6256 30.2686 6.94616C30.2686 3.26707 27.2471 0.274414 23.5331 0.274414C19.8188 0.274414 16.7973 3.26743 16.7973 6.94651C16.7973 10.626 19.8192 13.6186 23.5331 13.6186ZM23.5331 1.73196C26.4432 1.73196 28.811 4.07128 28.811 6.94651C28.811 9.8221 26.4432 12.1614 23.5331 12.1614C20.6227 12.1614 18.2549 9.8221 18.2549 6.94651C18.2549 4.07128 20.6227 1.73196 23.5331 1.73196Z" fill="#00EBBD"/>
</svg>
