<svg width="20" height="20" viewBox="0 0 20 20" fill="none" xmlns="http://www.w3.org/2000/svg">
<g clip-path="url(#clip0_209_7575)">
<path d="M4.29505 13.1724C6.19463 15.4431 8.48132 17.2309 11.0913 18.496C12.0849 18.9669 13.4139 19.5256 14.8944 19.6214C14.9862 19.6254 15.074 19.6294 15.1658 19.6294C16.1595 19.6294 16.9576 19.2862 17.6081 18.5798C17.6121 18.5758 17.6201 18.5678 17.6241 18.5599C17.8555 18.2805 18.1189 18.0291 18.3943 17.7617C18.5819 17.5821 18.7734 17.3946 18.957 17.203C19.807 16.3171 19.807 15.1917 18.949 14.3337L16.5506 11.9353C16.1435 11.5122 15.6567 11.2888 15.1458 11.2888C14.635 11.2888 14.1442 11.5122 13.7251 11.9313L12.2965 13.3599C12.1648 13.2841 12.0291 13.2163 11.9014 13.1524C11.7417 13.0726 11.5941 12.9968 11.4624 12.913C10.1614 12.0869 8.98016 11.0094 7.85079 9.62462C7.28011 8.9023 6.897 8.29571 6.62962 7.67714C7.00475 7.33793 7.35594 6.98276 7.69515 6.63556C7.81487 6.51185 7.93858 6.38814 8.06229 6.26442C8.49329 5.83343 8.72476 5.33458 8.72476 4.82776C8.72476 4.32094 8.49728 3.8221 8.06229 3.3911L6.87306 2.20186C6.73338 2.06219 6.60169 1.9265 6.466 1.78683C6.20261 1.51546 5.92725 1.23611 5.65588 0.98469C5.24484 0.581626 4.76196 0.370117 4.25115 0.370117C3.74433 0.370117 3.25746 0.581626 2.83045 0.98868L1.33792 2.48121C0.795176 3.02395 0.48789 3.68242 0.424038 4.44465C0.348215 5.39844 0.523807 6.41208 0.97875 7.63724C1.67713 9.53283 2.73068 11.2927 4.29505 13.1724ZM1.39778 4.52846C1.44567 3.99769 1.64919 3.55472 2.0323 3.17161L3.51685 1.68706C3.74832 1.46358 4.00372 1.34785 4.25115 1.34785C4.49458 1.34785 4.74201 1.46358 4.96948 1.69504C5.23686 1.94246 5.48827 2.20186 5.75964 2.47722C5.89533 2.6169 6.035 2.75657 6.17468 2.90024L7.36392 4.08948C7.61134 4.3369 7.73905 4.58832 7.73905 4.83574C7.73905 5.08317 7.61134 5.33459 7.36392 5.58201C7.2402 5.70572 7.11649 5.83343 6.99278 5.95714C6.62164 6.33227 6.27445 6.68744 5.89134 7.02665C5.88336 7.03464 5.87937 7.03863 5.87138 7.04661C5.54015 7.37784 5.59203 7.69311 5.67185 7.93255C5.67584 7.94452 5.67983 7.9525 5.68382 7.96448C5.99111 8.70276 6.41811 9.40513 7.08457 10.2432C8.28179 11.7198 9.54286 12.8651 10.9316 13.747C11.1032 13.8588 11.2868 13.9466 11.4584 14.0344C11.618 14.1142 11.7657 14.19 11.8974 14.2738C11.9133 14.2818 11.9253 14.2898 11.9413 14.2978C12.073 14.3656 12.2007 14.3975 12.3284 14.3975C12.6476 14.3975 12.8552 14.194 12.923 14.1262L14.4155 12.6336C14.647 12.4022 14.8984 12.2785 15.1458 12.2785C15.4491 12.2785 15.6966 12.466 15.8522 12.6336L18.2586 15.036C18.7375 15.5149 18.7335 16.0337 18.2466 16.5406C18.079 16.7201 17.9034 16.8917 17.7159 17.0713C17.4365 17.3427 17.1452 17.622 16.8818 17.9373C16.4229 18.4322 15.8761 18.6636 15.1698 18.6636C15.1019 18.6636 15.0301 18.6596 14.9623 18.6556C13.6533 18.5718 12.4361 18.061 11.5223 17.626C9.04002 16.4248 6.86108 14.7208 5.05328 12.5578C3.56474 10.766 2.56307 9.09784 1.90061 7.31C1.48956 6.21254 1.33392 5.33059 1.39778 4.52846Z" fill="#B9FF00"/>
</g>
<defs>
<clipPath id="clip0_209_7575">
<rect width="19.2593" height="19.2593" fill="white" transform="translate(0.370605 0.370117)"/>
</clipPath>
</defs>
</svg>
