<svg width="22" height="22" viewBox="0 0 22 22" fill="none" xmlns="http://www.w3.org/2000/svg">
<path d="M21.348 10.7377C21.348 4.81242 16.7065 0.170898 10.7812 0.170898H10.4392L0.214355 10.3958V10.7377C0.214355 16.663 4.85588 21.3046 10.7812 21.3046C16.7065 21.3046 21.348 16.663 21.348 10.7377ZM9.94743 2.99765C9.77576 6.78652 6.82997 9.73235 3.04111 9.90398L9.94743 2.99765ZM10.7812 19.6535C6.06049 19.6535 2.30593 16.1616 1.90183 11.5633H2.69096C5.11654 11.5633 7.36764 10.648 9.02952 8.98607C10.6914 7.32414 11.6067 5.07308 11.6067 2.6475V1.85837C16.2051 2.26247 19.6969 6.01704 19.6969 10.7377C19.6969 15.7372 15.7807 19.6535 10.7812 19.6535Z" fill="#00EBBD"/>
<path d="M5.93652 16.517H15.6258L10.7812 9.25L5.93652 16.517ZM9.02154 14.8659L10.7812 12.2265L12.5408 14.8659H9.02154Z" fill="#00EBBD"/>
<path d="M14.9087 4.95898C13.5431 4.95898 12.4321 6.06999 12.4321 7.43558C12.4321 8.80118 13.5431 9.91218 14.9087 9.91218C16.2743 9.91218 17.3853 8.80118 17.3853 7.43558C17.3853 6.06999 16.2743 4.95898 14.9087 4.95898ZM14.9087 8.26112C14.4535 8.26112 14.0832 7.89078 14.0832 7.43558C14.0832 6.98039 14.4535 6.61005 14.9087 6.61005C15.3639 6.61005 15.7343 6.98039 15.7343 7.43558C15.7343 7.89078 15.3639 8.26112 14.9087 8.26112Z" fill="#00EBBD"/>
</svg>
