<svg width="20" height="20" viewBox="0 0 20 20" fill="none" xmlns="http://www.w3.org/2000/svg">
<path d="M16.6806 3.1793C14.8605 1.35912 12.4404 0.356689 9.86626 0.356689C7.29214 0.356689 4.87206 1.35912 3.05192 3.1793C1.23171 4.99944 0.229317 7.41951 0.229317 9.99363C0.229317 12.5677 1.23171 14.9878 3.05192 16.808C4.87206 18.6281 7.29214 19.6306 9.86626 19.6306C12.4404 19.6306 14.8605 18.6281 16.6806 16.808C18.5008 14.9878 19.5032 12.5677 19.5032 9.99363C19.5032 7.41951 18.5008 4.99944 16.6806 3.1793ZM9.86626 18.4833C5.18504 18.4833 1.37656 14.6749 1.37656 9.99363C1.37656 5.31241 5.18504 1.50394 9.86626 1.50394C14.5475 1.50394 18.356 5.31241 18.356 9.99363C18.356 14.6749 14.5475 18.4833 9.86626 18.4833Z" fill="#B9FF00"/>
<path d="M7.78162 7.44873C6.84228 6.50932 5.31381 6.5094 4.37447 7.44873C4.15045 7.67272 4.15045 8.03595 4.37447 8.25997C4.59853 8.48395 4.96176 8.48395 5.18574 8.25997C5.67783 7.76792 6.47845 7.76796 6.97046 8.25997C7.08249 8.372 7.22926 8.42801 7.37604 8.42801C7.52281 8.42801 7.66966 8.372 7.78162 8.25997C8.00564 8.03595 8.00564 7.67276 7.78162 7.44873Z" fill="#B9FF00"/>
<path d="M15.358 7.44873C14.4187 6.5094 12.8902 6.50932 11.9509 7.44873C11.7268 7.67272 11.7268 8.03595 11.9509 8.25997C12.1749 8.48395 12.5382 8.48395 12.7621 8.25997C13.2541 7.76792 14.0548 7.76788 14.5469 8.25997C14.6589 8.372 14.8057 8.42801 14.9524 8.42801C15.0992 8.42801 15.2461 8.372 15.358 8.25997C15.582 8.03595 15.582 7.67276 15.358 7.44873Z" fill="#B9FF00"/>
<path d="M14.9525 10.4143H4.78014C4.46333 10.4143 4.20652 10.6712 4.20652 10.9879C4.20652 14.1087 6.74552 16.6477 9.8663 16.6477C12.9871 16.6477 15.5261 14.1087 15.5261 10.9879C15.5261 10.6711 15.2693 10.4143 14.9525 10.4143ZM9.8663 15.5005C7.57234 15.5005 5.67265 13.78 5.39006 11.5616H14.3426C14.06 13.78 12.1603 15.5005 9.8663 15.5005Z" fill="#B9FF00"/>
</svg>
