<svg width="21" height="21" viewBox="0 0 21 21" fill="none" xmlns="http://www.w3.org/2000/svg">
<g clip-path="url(#clip0_209_7580)">
<path d="M18.3749 3.30176H2.09402C1.1387 3.30176 0.35791 4.07911 0.35791 5.03787V15.4545C0.35791 16.4136 1.1392 17.1906 2.09402 17.1906H18.3749C19.3302 17.1906 20.111 16.4133 20.111 15.4545V5.03787C20.111 4.07888 19.3298 3.30176 18.3749 3.30176ZM18.1083 4.45917C17.547 5.02232 10.9538 11.637 10.6829 11.9088C10.4567 12.1357 10.0123 12.1359 9.786 11.9088L2.36061 4.45917H18.1083ZM1.51532 15.2418V5.25064L6.49468 10.2462L1.51532 15.2418ZM2.36061 16.0332L7.31177 11.066L8.96628 12.7259C9.64429 13.4061 10.8249 13.4058 11.5027 12.7259L13.1572 11.066L18.1083 16.0332H2.36061ZM18.9536 15.2418L13.9742 10.2462L18.9536 5.25064V15.2418Z" fill="#B9FF00"/>
</g>
<defs>
<clipPath id="clip0_209_7580">
<rect width="19.7531" height="19.7531" fill="white" transform="translate(0.35791 0.370117)"/>
</clipPath>
</defs>
</svg>
