<svg width="194" height="46" viewBox="0 0 194 46" fill="none" xmlns="http://www.w3.org/2000/svg">
<path d="M35.5501 28.292C35.5081 28.0369 35.6356 27.9161 35.8907 27.9161H43.2389C43.3339 27.913 43.4266 27.9464 43.4978 28.0095C43.569 28.0726 43.6132 28.1606 43.6215 28.2553C44.0829 31.1593 45.7737 32.7239 49.5774 32.7239C52.8342 32.7239 54.5982 31.8392 54.5982 29.6924C54.5982 24.0487 36.097 28.7642 36.097 16.801C36.097 11.1572 40.4489 7.48929 48.4714 7.48929C55.4857 7.48929 60.5487 10.0594 61.6057 16.4617C61.6178 16.5163 61.6166 16.573 61.6023 16.627C61.588 16.6811 61.561 16.7309 61.5236 16.7725C61.4862 16.814 61.4394 16.846 61.3871 16.8658C61.3349 16.8857 61.2786 16.8927 61.2231 16.8865H53.9238C53.8181 16.8898 53.7152 16.8519 53.6369 16.7808C53.5586 16.7096 53.5112 16.6107 53.5045 16.5051C53.2073 14.4439 51.3957 13.2619 48.3479 13.2619C45.8131 13.2619 43.954 14.0626 43.954 16.0017C43.954 21.3062 62.5774 16.8444 62.5774 28.6C62.5774 34.9168 57.6786 38.4572 49.443 38.4572C41.2074 38.4572 36.2232 35.0009 35.5488 28.3028L35.5501 28.292Z" fill="#1776F2"/>
<path d="M76.6658 37.6917H69.0667C69.0167 37.6983 68.9658 37.6947 68.9172 37.681C68.8687 37.6673 68.8234 37.6439 68.7842 37.6122C68.7449 37.5804 68.7126 37.541 68.6891 37.4964C68.6655 37.4517 68.6514 37.4028 68.6474 37.3525L64.0404 16.4127C63.9983 16.1155 64.1259 15.9948 64.381 15.9948H71.0547C71.1497 15.9916 71.2424 16.0251 71.3136 16.0882C71.3848 16.1513 71.4291 16.2392 71.4373 16.334L73.3426 30.2825L76.0023 16.334C76.0072 16.2841 76.0219 16.2356 76.0457 16.1914C76.0696 16.1472 76.1019 16.1082 76.1409 16.0766C76.1799 16.0451 76.2248 16.0216 76.273 16.0075C76.3212 15.9935 76.3717 15.9891 76.4216 15.9948H84.1564C84.2044 15.9892 84.2529 15.9939 84.299 16.0084C84.345 16.0229 84.3874 16.0469 84.4235 16.0789C84.4596 16.1109 84.4886 16.1502 84.5085 16.1941C84.5284 16.2381 84.5388 16.2858 84.5391 16.334L87.074 29.9799L89.1094 16.334C89.1177 16.2392 89.162 16.1513 89.2332 16.0882C89.3044 16.0251 89.3971 15.9916 89.4921 15.9948H95.5769C95.832 15.9948 95.9596 16.1223 95.9175 16.4127L91.2223 37.3525C91.2173 37.403 91.2022 37.452 91.1779 37.4966C91.1536 37.5412 91.1206 37.5804 91.0809 37.612C91.0412 37.6437 90.9955 37.667 90.9466 37.6807C90.8977 37.6944 90.8466 37.6981 90.7962 37.6917H83.1509C83.1009 37.6983 83.05 37.6947 83.0015 37.681C82.9529 37.6673 82.9076 37.6439 82.8684 37.6122C82.8291 37.5804 82.7968 37.541 82.7733 37.4964C82.7498 37.4517 82.7356 37.4028 82.7316 37.3525L79.734 23.408L77.115 37.3525C77.1101 37.4024 77.0953 37.4509 77.0715 37.4951C77.0477 37.5393 77.0154 37.5783 76.9763 37.6098C76.9373 37.6414 76.8924 37.6649 76.8442 37.679C76.7961 37.693 76.7456 37.6973 76.6957 37.6917H76.6658Z" fill="#1776F2"/>
<path d="M105.917 8.57881V13.9376C105.917 13.9876 105.907 14.0372 105.888 14.0833C105.869 14.1295 105.84 14.1713 105.804 14.2063C105.769 14.2413 105.726 14.2688 105.68 14.2872C105.633 14.3056 105.583 14.3145 105.533 14.3135H98.5625C98.4634 14.3127 98.3686 14.2728 98.2989 14.2023C98.2292 14.1319 98.1903 14.0367 98.1907 13.9376V8.57881C98.1905 8.52928 98.2001 8.48021 98.2191 8.43443C98.238 8.38866 98.2658 8.34709 98.3009 8.31213C98.3359 8.27717 98.3776 8.24952 98.4234 8.23077C98.4693 8.21203 98.5184 8.20256 98.5679 8.20292H105.539C105.639 8.20327 105.734 8.2429 105.805 8.31324C105.876 8.38358 105.916 8.47898 105.917 8.57881ZM105.917 37.309C105.917 37.3591 105.907 37.4087 105.888 37.4548C105.869 37.5009 105.84 37.5427 105.804 37.5778C105.769 37.6128 105.726 37.6403 105.68 37.6587C105.633 37.6771 105.583 37.686 105.533 37.6849H98.5978C98.4972 37.6857 98.4005 37.6465 98.3288 37.576C98.2571 37.5056 98.2162 37.4096 98.2151 37.309L98.3427 27.0271L98.2151 16.3693C98.2151 16.3194 98.225 16.2699 98.2444 16.2239C98.2637 16.1778 98.292 16.1361 98.3276 16.1011C98.3632 16.0661 98.4055 16.0385 98.4518 16.0201C98.4982 16.0016 98.5478 15.9925 98.5978 15.9934H105.527C105.576 15.9929 105.626 16.0022 105.672 16.0208C105.719 16.0394 105.761 16.0669 105.796 16.1018C105.832 16.1367 105.861 16.1783 105.88 16.2242C105.9 16.2701 105.91 16.3194 105.911 16.3693L105.79 27.0258L105.917 37.309Z" fill="#1776F2"/>
<path d="M124.178 15.9919C124.279 15.9911 124.375 16.0303 124.447 16.1008C124.519 16.1712 124.56 16.2672 124.561 16.3678V20.8784C124.561 20.9283 124.551 20.9778 124.531 21.0238C124.512 21.0699 124.484 21.1116 124.448 21.1466C124.413 21.1816 124.37 21.2092 124.324 21.2276C124.278 21.2461 124.228 21.2552 124.178 21.2543H119.321V28.2075L119.534 37.3075C119.534 37.3574 119.524 37.4069 119.505 37.4529C119.486 37.499 119.458 37.5407 119.422 37.5757C119.386 37.6107 119.344 37.6383 119.298 37.6567C119.251 37.6752 119.202 37.6843 119.152 37.6834H112.059C112.009 37.6839 111.959 37.6746 111.913 37.656C111.867 37.6374 111.825 37.6099 111.789 37.575C111.753 37.5401 111.725 37.4985 111.705 37.4526C111.686 37.4067 111.675 37.3574 111.675 37.3075L111.888 28.2075V21.2584H109.012C108.912 21.2591 108.815 21.2199 108.743 21.1495C108.672 21.079 108.631 20.983 108.63 20.8825V16.3732C108.63 16.3232 108.64 16.2738 108.659 16.2278C108.678 16.1817 108.706 16.14 108.742 16.105C108.778 16.07 108.82 16.0424 108.866 16.0239C108.913 16.0055 108.962 15.9964 109.012 15.9973H111.888V15.0162C111.888 9.79042 115.602 7.81464 119.867 7.81464C121.313 7.83637 122.754 7.97844 124.177 8.23937C124.271 8.24695 124.358 8.29005 124.421 8.35988C124.485 8.42971 124.519 8.52104 124.517 8.61526V13.13C124.525 13.1825 124.518 13.2362 124.497 13.2849C124.476 13.3337 124.442 13.3757 124.398 13.4064C124.355 13.4371 124.304 13.4553 124.251 13.459C124.198 13.4626 124.145 13.4516 124.098 13.4272C123.333 13.2816 122.555 13.2107 121.776 13.2155C120.256 13.2155 119.334 13.6768 119.334 15.5319V15.9932H124.183L124.178 15.9919Z" fill="#1776F2"/>
<path d="M137.647 10.9371L137.603 15.9933H142.376C142.476 15.9925 142.573 16.0317 142.645 16.1021C142.716 16.1726 142.757 16.2686 142.758 16.3691V20.8798C142.758 20.9297 142.748 20.9792 142.729 21.0252C142.71 21.0713 142.681 21.113 142.646 21.148C142.61 21.183 142.568 21.2105 142.522 21.229C142.475 21.2475 142.426 21.2566 142.376 21.2557H137.603L137.647 30.4398C137.647 32.3396 138.618 32.7982 139.755 32.7982C140.614 32.7908 141.467 32.6624 142.29 32.4169C142.547 32.3314 142.711 32.5024 142.711 32.7562V36.8C142.719 36.8989 142.694 36.9976 142.64 37.081C142.587 37.1644 142.507 37.2278 142.414 37.2614C140.966 37.8051 139.437 38.1042 137.891 38.1462C133.751 38.1462 130.038 36.0795 130.038 30.8184L130.123 21.2584H127.632C127.531 21.2591 127.435 21.22 127.363 21.1495C127.291 21.079 127.25 20.983 127.249 20.8825V16.3691C127.249 16.3192 127.259 16.2698 127.279 16.2237C127.298 16.1777 127.326 16.1359 127.362 16.1009C127.397 16.0659 127.44 16.0384 127.486 16.0199C127.532 16.0014 127.582 15.9924 127.632 15.9933H130.081L130.039 10.9371C130.039 10.8869 130.049 10.8372 130.068 10.7909C130.088 10.7445 130.116 10.7024 130.151 10.667C130.187 10.6316 130.229 10.6035 130.276 10.5844C130.322 10.5653 130.372 10.5556 130.422 10.5558H137.267C137.367 10.5561 137.464 10.5965 137.535 10.668C137.607 10.7394 137.647 10.8362 137.647 10.9371Z" fill="#1776F2"/>
<path d="M160.009 16.3683C160.009 16.1132 160.094 15.9924 160.349 15.9924H167.278C167.328 15.9919 167.378 16.0012 167.424 16.0198C167.47 16.0384 167.512 16.0659 167.548 16.1008C167.584 16.1357 167.612 16.1773 167.632 16.2232C167.651 16.2691 167.662 16.3184 167.662 16.3683L167.535 26.8986L167.662 37.3013C167.662 37.3513 167.652 37.4009 167.633 37.447C167.613 37.4932 167.585 37.535 167.549 37.57C167.513 37.605 167.471 37.6325 167.425 37.6509C167.378 37.6693 167.328 37.6783 167.278 37.6772H160.52C160.469 37.685 160.416 37.6807 160.367 37.6647C160.317 37.6487 160.272 37.6214 160.235 37.5849C160.197 37.5485 160.169 37.5039 160.152 37.4547C160.135 37.4055 160.13 37.353 160.136 37.3013L160.222 35.2346C159.439 36.1673 158.454 36.9101 157.342 37.4068C156.231 37.9035 155.02 38.1412 153.803 38.1019C147.634 38.1019 144.34 33.2167 144.34 26.8986C144.34 20.5804 148.139 15.5677 154.137 15.5677C155.255 15.5205 156.37 15.723 157.4 16.1602C158.43 16.5975 159.35 17.2587 160.093 18.0958L160.009 16.3683ZM160.264 26.9407C160.306 22.5983 158.915 20.5384 156.253 20.5384C153.548 20.4963 152.07 22.4789 152.07 26.7276C152.07 30.9763 153.59 33.214 156.167 33.172C158.744 33.1733 160.22 31.1908 160.264 26.9407Z" fill="#1776F2"/>
<path d="M193.981 26.7778C193.981 33.0525 190.181 38.1087 184.183 38.1087C183.09 38.1501 182.001 37.9574 180.988 37.5434C179.975 37.1294 179.063 36.5036 178.312 35.7081L178.397 45.2329C178.397 45.2832 178.387 45.333 178.368 45.3794C178.349 45.4259 178.32 45.468 178.285 45.5035C178.249 45.5389 178.207 45.5669 178.16 45.5859C178.113 45.6049 178.064 45.6145 178.013 45.6142H171.042C170.992 45.6144 170.942 45.6046 170.896 45.5855C170.85 45.5665 170.807 45.5384 170.772 45.503C170.736 45.4676 170.708 45.4255 170.689 45.3791C170.67 45.3328 170.66 45.2831 170.66 45.2329L170.787 29.2204L170.66 16.3737C170.66 16.3238 170.67 16.2743 170.689 16.2283C170.708 16.1822 170.737 16.1405 170.772 16.1055C170.808 16.0705 170.85 16.043 170.896 16.0245C170.943 16.006 170.992 15.9969 171.042 15.9978H177.802C177.853 15.9903 177.905 15.9948 177.954 16.011C178.003 16.0273 178.047 16.0547 178.084 16.0913C178.121 16.1278 178.148 16.1724 178.164 16.2214C178.18 16.2704 178.185 16.3226 178.177 16.3737L178.092 18.4404C178.875 17.5079 179.86 16.7653 180.971 16.2686C182.083 15.772 183.293 15.5341 184.51 15.5731C190.637 15.5731 193.974 20.4583 193.974 26.7764L193.981 26.7778ZM186.207 26.9895C186.207 22.6064 184.73 20.5451 182.153 20.5451C179.576 20.5451 178.099 22.5277 178.057 26.7873C178.015 31.0862 179.407 33.1461 182.026 33.1461C184.645 33.1461 186.207 31.2043 186.207 26.9908V26.9895Z" fill="#1776F2"/>
<path d="M14.9159 0C15.038 0 15.0801 0.0732776 15.1343 0.127557C16.8279 1.7953 18.5146 3.46847 20.2203 5.12264C20.4632 5.35876 20.2746 5.45647 20.1471 5.58945C18.7095 7.04303 17.4616 8.67259 16.433 10.4393C14.9727 12.8987 13.9755 15.605 13.491 18.4239C13.4407 18.772 13.3058 19.1026 13.0981 19.3865C12.8904 19.6704 12.6162 19.899 12.2996 20.0523C11.2968 20.6046 10.2872 21.1379 9.27892 21.6807C9.00012 21.8387 8.74288 22.0321 8.51358 22.256C8.43021 22.325 8.36311 22.4116 8.31704 22.5095C8.27098 22.6075 8.2471 22.7143 8.2471 22.8226C8.2471 22.9308 8.27098 23.0377 8.31704 23.1356C8.36311 23.2335 8.43021 23.3201 8.51358 23.3891C8.9808 23.7874 9.49758 24.1235 10.051 24.3892C11.0282 24.8419 11.9671 25.3729 12.8587 25.9769C13.1477 26.1954 13.342 26.5164 13.4015 26.8739C14.2228 31.8348 16.5631 36.4186 20.0996 39.9933C20.3547 40.2538 20.3547 40.3814 20.0996 40.6365C18.4585 42.2251 16.8301 43.8277 15.2144 45.4443C14.9959 45.6628 14.8928 45.6506 14.6852 45.4443C10.1002 40.8545 7.02529 34.9746 5.87151 28.5905C5.77381 28.0694 5.68289 27.5415 5.62861 27.0136C5.57823 26.7033 5.4512 26.4105 5.25902 26.1617C5.06685 25.9129 4.81561 25.716 4.52809 25.5888C3.54291 24.9822 2.46818 24.5398 1.48843 23.9211C1.24528 23.7663 1.01961 23.5857 0.815361 23.3823C0.734543 23.3142 0.669583 23.2292 0.625022 23.1333C0.580461 23.0375 0.557373 22.933 0.557373 22.8273C0.557373 22.7216 0.580461 22.6172 0.625022 22.5213C0.669583 22.4254 0.734543 22.3405 0.815361 22.2723C1.26077 21.8715 1.75999 21.5349 2.29855 21.2722C3.24748 20.8232 4.16148 20.3039 5.03289 19.7185C5.20189 19.5881 5.34241 19.4246 5.4458 19.2379C5.54919 19.0512 5.61325 18.8453 5.63404 18.6329C6.52973 11.6544 9.7177 5.17109 14.6974 0.200835C14.7707 0.127557 14.8494 0.0610646 14.9159 0Z" fill="#00EBBD"/>
<path d="M25.2006 35.5806C25.0486 35.5507 24.9875 35.4449 24.902 35.3567C22.7198 33.173 21.1696 30.4392 20.4158 27.4454C20.3263 27.0257 20.1431 26.6315 19.8799 26.2925C19.6168 25.9534 19.2804 25.6782 18.896 25.4873C17.9176 24.9445 16.8835 24.5116 15.9296 23.9173C14.6174 23.1031 14.6228 22.5413 15.9418 21.7284C16.9514 21.1042 18.0628 20.674 19.0778 20.0553C19.5119 19.8456 19.8768 19.5159 20.1295 19.1054C20.238 18.8331 20.3194 18.5509 20.3724 18.2627C21.1622 15.2673 22.7138 12.5274 24.8762 10.3093C25.1137 10.0664 25.2345 10.0787 25.4652 10.3093C27.0818 11.9224 28.7048 13.5268 30.3341 15.1226C30.5471 15.3289 30.5892 15.4496 30.3585 15.6871C30.3585 15.6871 29.125 17.5421 28.4858 18.4581C28.0959 19.1305 27.5447 19.6953 26.8819 20.1014C25.818 20.6768 24.6876 21.1191 23.6482 21.7501C23.2166 22.0107 22.6698 22.278 22.663 22.8167C22.663 23.3799 23.2221 23.6472 23.6658 23.9145C24.6442 24.5089 25.7013 24.9459 26.7231 25.4669C27.4893 25.9068 28.1201 26.5484 28.5469 27.3219C29.1548 28.2257 30.3951 30.0142 30.3951 30.0142C30.5892 30.2137 30.5593 30.3168 30.3829 30.4932C28.7233 32.1216 27.0759 33.75 25.4231 35.3852C25.358 35.453 25.267 35.5195 25.2006 35.5806Z" fill="#00EBBD"/>
</svg>
