<svg width="38" height="39" viewBox="0 0 38 39" fill="none" xmlns="http://www.w3.org/2000/svg">
<path d="M30.1884 15.7495C34.3156 15.7495 37.673 12.3921 37.673 8.26487C37.673 4.13762 34.3156 0.780273 30.1884 0.780273C27.1913 0.780273 24.6072 2.55488 23.4131 5.10518L21.4089 4.36543C21.4326 4.21193 21.4564 4.05844 21.4564 3.89886C21.4564 2.17937 20.0573 0.780273 18.3378 0.780273C16.6183 0.780273 15.2192 2.17937 15.2192 3.89886C15.2192 5.61834 16.6183 7.01744 18.3378 7.01744C19.4549 7.01744 20.4291 6.42174 20.9797 5.53672L22.9806 6.27525C22.8049 6.91024 22.7038 7.57507 22.7038 8.26487C22.7038 9.08198 22.8396 9.8665 23.083 10.6032L16.2233 13.5104C14.9673 11.1359 12.4743 9.51231 9.60575 9.51231C8.67626 9.51231 7.78942 9.69077 6.96744 10.0014L5.24217 6.37575C5.9938 5.80564 6.48717 4.9124 6.48717 3.89886C6.48717 2.17937 5.08807 0.780273 3.36858 0.780273C1.6491 0.780273 0.25 2.17937 0.25 3.89886C0.25 5.61834 1.6491 7.01744 3.36858 7.01744C3.62806 7.01744 3.87688 6.97633 4.11838 6.91572L5.84152 10.5377C3.62045 11.8375 2.12115 14.2426 2.12115 16.9969C2.12115 19.584 3.44107 21.8676 5.44195 23.2121L4.30111 25.263C4.00418 25.1695 3.69536 25.1052 3.36858 25.1052C1.6491 25.1052 0.25 26.5043 0.25 28.2238C0.25 29.9433 1.6491 31.3424 3.36858 31.3424C5.08807 31.3424 6.48717 29.9433 6.48717 28.2238C6.48717 27.2794 6.05623 26.4419 5.3914 25.8699L6.53468 23.8148C7.47269 24.2394 8.51059 24.4815 9.60575 24.4815C11.3173 24.4815 12.8915 23.8977 14.1539 22.9271L16.6089 25.6278C15.3639 26.9651 14.5955 28.7516 14.5955 30.7187C14.5955 31.1003 14.6336 31.4721 14.6884 31.8382L11.8 32.5237C11.303 31.4609 10.2307 30.7187 8.98203 30.7187C7.26255 30.7187 5.86345 32.1178 5.86345 33.8373C5.86345 35.5567 7.26255 36.9558 8.98203 36.9558C10.7015 36.9558 12.1006 35.5567 12.1006 33.8373C12.1006 33.8028 12.0912 33.7706 12.0906 33.7361L14.9734 33.0527C15.9565 36.0394 18.7681 38.2033 22.0801 38.2033C26.2073 38.2033 29.5647 34.8459 29.5647 30.7187C29.5647 29.439 29.2409 28.2339 28.672 27.1798L32.3358 24.7976C32.9022 25.3714 33.6868 25.7289 34.5544 25.7289C36.2739 25.7289 37.673 24.3298 37.673 22.6104C37.673 20.8909 36.2739 19.4918 34.5544 19.4918C32.8349 19.4918 31.4358 20.8909 31.4358 22.6104C31.4358 23.0133 31.5187 23.3961 31.6585 23.75L27.9862 26.1373C27.2513 25.1926 26.2972 24.4297 25.1987 23.9233L28.2429 15.4839C28.8642 15.6514 29.5147 15.7495 30.1884 15.7495ZM18.3378 5.77001C17.3063 5.77001 16.4666 4.93036 16.4666 3.89886C16.4666 2.86735 17.3063 2.02771 18.3378 2.02771C19.3693 2.02771 20.2089 2.86735 20.2089 3.89886C20.2089 4.93036 19.3693 5.77001 18.3378 5.77001ZM1.49743 3.89886C1.49743 2.86735 2.33707 2.02771 3.36858 2.02771C4.40009 2.02771 5.23973 2.86735 5.23973 3.89886C5.23973 4.93036 4.40009 5.77001 3.36858 5.77001C2.33707 5.77001 1.49743 4.93036 1.49743 3.89886ZM3.36858 30.095C2.33707 30.095 1.49743 29.2553 1.49743 28.2238C1.49743 27.1923 2.33707 26.3527 3.36858 26.3527C4.40009 26.3527 5.23973 27.1923 5.23973 28.2238C5.23973 29.2553 4.40009 30.095 3.36858 30.095ZM8.98203 35.7084C7.95052 35.7084 7.11088 34.8688 7.11088 33.8373C7.11088 32.8057 7.95052 31.9661 8.98203 31.9661C10.0135 31.9661 10.8532 32.8057 10.8532 33.8373C10.8532 34.8688 10.0135 35.7084 8.98203 35.7084ZM34.5544 20.7392C35.5859 20.7392 36.4256 21.5788 36.4256 22.6104C36.4256 23.6419 35.5859 24.4815 34.5544 24.4815C33.5229 24.4815 32.6833 23.6419 32.6833 22.6104C32.6833 21.5788 33.5229 20.7392 34.5544 20.7392ZM26.5152 13.2945C26.7936 11.8519 28.0654 10.7597 29.5647 10.7597H30.8121C32.3114 10.7597 33.5832 11.8519 33.8616 13.2945C32.8298 14.0498 31.5625 14.502 30.1884 14.502C28.8143 14.502 27.547 14.0498 26.5152 13.2945ZM30.1884 9.51231C29.1569 9.51231 28.3172 8.67266 28.3172 7.64116C28.3172 6.60965 29.1569 5.77001 30.1884 5.77001C31.2199 5.77001 32.0595 6.60965 32.0595 7.64116C32.0595 8.67266 31.2199 9.51231 30.1884 9.51231ZM30.1884 2.02771C33.6277 2.02771 36.4256 4.8256 36.4256 8.26487C36.4256 9.82416 35.846 11.2488 34.8961 12.3434C34.4591 11.1925 33.5479 10.274 32.4125 9.82051C32.9647 9.2577 33.307 8.48933 33.307 7.64116C33.307 5.92167 31.9079 4.52257 30.1884 4.52257C28.4689 4.52257 27.0698 5.92167 27.0698 7.64116C27.0698 8.48933 27.4121 9.2577 27.9643 9.82051C26.8289 10.274 25.9177 11.1925 25.4807 12.3434C24.5308 11.2488 23.9512 9.82416 23.9512 8.26487C23.9512 4.8256 26.7491 2.02771 30.1884 2.02771ZM3.36858 16.9969C3.36858 13.5576 6.16648 10.7597 9.60575 10.7597C13.045 10.7597 15.8429 13.5576 15.8429 16.9969C15.8429 18.5611 15.2597 19.9894 14.3049 21.0855C13.8694 19.9303 12.9564 19.0072 11.818 18.5525C12.3695 17.9897 12.7118 17.2214 12.7118 16.3732C12.7118 14.6537 11.3127 13.2546 9.59326 13.2546C7.87378 13.2546 6.47468 14.6537 6.47468 16.3732C6.47468 17.2214 6.81699 17.9897 7.36914 18.5525C6.23713 19.0039 5.32714 19.9191 4.88859 21.0654C3.94418 19.972 3.36858 18.5519 3.36858 16.9969ZM7.72211 16.3732C7.72211 15.3417 8.56175 14.502 9.59326 14.502C10.6248 14.502 11.4644 15.3417 11.4644 16.3732C11.4644 17.4047 10.6248 18.2443 9.59326 18.2443C8.56175 18.2443 7.72211 17.4047 7.72211 16.3732ZM5.92223 22.0183C6.20333 20.5796 7.4733 19.4918 8.96955 19.4918H10.217C11.719 19.4918 12.9932 20.5875 13.2676 22.0348C12.238 22.7855 10.9747 23.2341 9.60575 23.2341C8.22675 23.2341 6.95556 22.7788 5.92223 22.0183ZM18.3966 35.7401C18.6777 34.3014 19.9476 33.2135 21.4439 33.2135H22.6913C24.1933 33.2135 25.4676 34.3093 25.742 35.7565C24.7123 36.5072 23.449 36.9558 22.0801 36.9558C20.7011 36.9558 19.4299 36.5005 18.3966 35.7401ZM22.0676 31.9661C21.0361 31.9661 20.1964 31.1265 20.1964 30.095C20.1964 29.0634 21.0361 28.2238 22.0676 28.2238C23.0991 28.2238 23.9387 29.0634 23.9387 30.095C23.9387 31.1265 23.0991 31.9661 22.0676 31.9661ZM28.3172 30.7187C28.3172 32.2828 27.734 33.7112 26.7793 34.8072C26.3438 33.6521 25.4307 32.729 24.2923 32.2743C24.8439 31.7115 25.1862 30.9431 25.1862 30.095C25.1862 28.3755 23.7871 26.9764 22.0676 26.9764C20.3481 26.9764 18.949 28.3755 18.949 30.095C18.949 30.9431 19.2913 31.7115 19.8435 32.2743C18.7115 32.7256 17.8015 33.6408 17.3629 34.7871C16.4185 33.6938 15.8429 32.2737 15.8429 30.7187C15.8429 27.2794 18.6408 24.4815 22.0801 24.4815C25.5194 24.4815 28.3172 27.2794 28.3172 30.7187ZM24.0255 23.4996C23.4043 23.3321 22.7537 23.2341 22.0801 23.2341C20.3685 23.2341 18.7943 23.8179 17.5319 24.7885L15.077 22.0877C16.322 20.7505 17.0903 18.964 17.0903 16.9969C17.0903 16.1798 16.9545 15.3953 16.7112 14.6586L23.5708 11.7514C24.3392 13.2041 25.5723 14.3699 27.0704 15.0603L24.0255 23.4996Z" fill="#00EBBD"/>
</svg>
