<svg width="44" height="43" viewBox="0 0 44 43" fill="none" xmlns="http://www.w3.org/2000/svg">
<g clip-path="url(#clip0_209_8169)">
<path d="M29.2138 0.493164H6.52067C3.04335 0.493164 0.214355 3.28444 0.214355 6.7154V34.082C0.214355 34.7691 0.778877 35.3261 1.4752 35.3261H5.25773V41.7121C5.25773 42.3991 5.82225 42.9561 6.51857 42.9561H31.7354C32.4318 42.9561 32.9963 42.3991 32.9963 41.7121V15.2076C34.4638 14.694 35.518 13.3113 35.518 11.6895V6.71333C35.518 3.28353 32.6899 0.493164 29.2138 0.493164ZM2.73604 32.838V6.7154C2.73604 4.65636 4.43381 2.98123 6.52067 2.98123C8.16473 2.98123 9.56662 4.02124 10.0879 5.46929H6.51857C5.82225 5.46929 5.25773 6.02629 5.25773 6.71333V32.838H2.73604ZM7.78362 11.6895V7.95736H10.3053V11.6895C10.3053 12.3754 9.73969 12.9335 9.04446 12.9335C8.34923 12.9335 7.78362 12.3754 7.78362 11.6895ZM7.77942 40.4681V15.2062C8.17272 15.3443 8.59552 15.4204 9.03606 15.4214C9.03749 15.4214 9.03883 15.4216 9.04026 15.4216H30.4746V40.4682H7.77942V40.4681ZM32.9963 11.6895C32.9963 12.3754 32.4307 12.9335 31.7354 12.9335H12.6101C12.979 11.9073 12.7647 11.4389 12.827 6.7154C12.827 5.31536 12.3556 4.02207 11.5616 2.98123H29.2138C31.2994 2.98123 32.9963 4.65545 32.9963 6.71333V11.6895Z" fill="#B9FF00"/>
<path d="M14.5338 18.922L12.8718 20.5619L12.4537 20.1493C11.9613 19.6635 11.163 19.6635 10.6706 20.1493C10.1782 20.6351 10.1782 21.4228 10.6706 21.9086L11.9803 23.2009C12.4725 23.6865 13.271 23.6867 13.7634 23.2009L16.317 20.6813C16.8094 20.1955 16.8094 19.4079 16.317 18.922C15.8246 18.4362 15.0262 18.4361 14.5338 18.922Z" fill="#B9FF00"/>
<path d="M14.4744 25.7668L12.8718 27.348L12.4537 26.9354C11.9613 26.4496 11.163 26.4496 10.6706 26.9354C10.1782 27.4212 10.1782 28.2089 10.6706 28.6947L11.9803 29.987C12.4725 30.4726 13.271 30.4728 13.7634 29.987L16.2575 27.5261C16.7499 27.0402 16.7499 26.2526 16.2575 25.7668C15.7651 25.2809 14.9668 25.2808 14.4744 25.7668Z" fill="#B9FF00"/>
<path d="M14.4744 32.5822L12.8718 34.1634L12.4537 33.7508C11.9613 33.265 11.163 33.265 10.6706 33.7508C10.1782 34.2367 10.1782 35.0243 10.6706 35.5101L11.9803 36.8024C12.4725 37.288 13.271 37.2882 13.7634 36.8024L16.2575 34.3415C16.7499 33.8557 16.7499 33.068 16.2575 32.5822C15.7651 32.0963 14.9668 32.0963 14.4744 32.5822Z" fill="#B9FF00"/>
<path d="M26.692 19.8174H20.3878C19.6915 19.8174 19.127 20.3744 19.127 21.0614C19.127 21.7485 19.6915 22.3054 20.3878 22.3054H26.692C27.3883 22.3054 27.9529 21.7485 27.9529 21.0614C27.9529 20.3744 27.3883 19.8174 26.692 19.8174Z" fill="#B9FF00"/>
<path d="M26.692 26.6182H20.3878C19.6915 26.6182 19.127 27.1752 19.127 27.8622C19.127 28.5492 19.6915 29.1062 20.3878 29.1062H26.692C27.3883 29.1062 27.9529 28.5492 27.9529 27.8622C27.9529 27.1752 27.3883 26.6182 26.692 26.6182Z" fill="#B9FF00"/>
<path d="M26.692 33.4189H20.3878C19.6915 33.4189 19.127 33.9759 19.127 34.663C19.127 35.35 19.6915 35.907 20.3878 35.907H26.692C27.3883 35.907 27.9529 35.35 27.9529 34.663C27.9529 33.9759 27.3883 33.4189 26.692 33.4189Z" fill="#B9FF00"/>
<path d="M43.1613 20.061L40.6439 13.8409C40.2219 12.7982 38.7249 12.7977 38.3023 13.8402L35.7806 20.0604C35.721 20.2073 35.6904 20.3643 35.6904 20.5226C35.6908 22.5299 35.6902 38.3242 35.6943 40.0542C35.6946 41.6545 37.0143 42.9564 38.6363 42.9564H40.3093C41.9315 42.9564 43.2513 41.6543 43.2513 40.0537V20.5224C43.2513 20.3644 43.2208 20.2078 43.1613 20.061ZM39.472 17.6542L40.7296 20.7616V35.4277H38.2151L38.2121 20.7618L39.472 17.6542ZM40.3093 40.4684H38.6363C38.4046 40.4684 38.216 40.2824 38.216 40.0538L38.2156 37.9158H40.7296V40.0537C40.7296 40.2824 40.5411 40.4684 40.3093 40.4684Z" fill="#B9FF00"/>
</g>
<defs>
<clipPath id="clip0_209_8169">
<rect width="43.0368" height="42.463" fill="white" transform="translate(0.214355 0.493164)"/>
</clipPath>
</defs>
</svg>
