<svg width="15" height="17" viewBox="0 0 15 17" fill="none" xmlns="http://www.w3.org/2000/svg">
<path d="M11.5648 4.52599C11.4136 3.4859 10.893 2.53502 10.0981 1.84736C9.30325 1.1597 8.28736 0.78125 7.23633 0.78125C6.1853 0.78125 5.16941 1.1597 4.37456 1.84736C3.5797 2.53502 3.05904 3.4859 2.90783 4.52599C2.36578 4.76237 1.87729 5.10621 1.47188 5.53672C1.06648 5.96723 0.752578 6.47548 0.549159 7.03074C0.34574 7.586 0.257027 8.17674 0.288379 8.76726C0.319731 9.35777 0.4705 9.9358 0.73157 10.4664C0.992641 10.997 1.35859 11.4692 1.8073 11.8543C2.25601 12.2395 2.77817 12.5297 3.3422 12.7073C3.90623 12.885 4.50043 12.9464 5.08888 12.8879C5.67733 12.8294 6.24781 12.6522 6.76583 12.367V16.823H7.70583V12.366C8.22386 12.6512 8.79433 12.8284 9.38278 12.8869C9.97123 12.9454 10.5654 12.884 11.1295 12.7063C11.6935 12.5287 12.2157 12.2385 12.6644 11.8533C13.1131 11.4682 13.479 10.996 13.7401 10.4654C14.0012 9.9348 14.1519 9.35677 14.1833 8.76626C14.2146 8.17574 14.1259 7.585 13.9225 7.02974C13.7191 6.47448 13.4052 5.96623 12.9998 5.53572C12.5944 5.10521 12.1059 4.76137 11.5638 4.52499L11.5648 4.52599ZM9.81583 11.969C9.05181 11.9694 8.30954 11.7145 7.70683 11.245V8.36999L9.81483 7.26199L9.37783 6.42999L7.70783 7.30799V5.45799H6.76783V9.39099L5.09783 8.51299L4.66083 9.34499L6.76683 10.453V11.244C6.37468 11.5505 5.92058 11.7681 5.43599 11.8817C4.9514 11.9953 4.44791 12.0022 3.96038 11.902C3.47286 11.8017 3.01295 11.5967 2.61252 11.3011C2.2121 11.0054 1.88072 10.6263 1.64135 10.1899C1.40197 9.75354 1.26031 9.27033 1.2262 8.77377C1.19208 8.27722 1.26631 7.77918 1.44375 7.31415C1.62119 6.84913 1.8976 6.42823 2.25383 6.08062C2.61006 5.73301 3.0376 5.46699 3.50683 5.30099L3.79383 5.20099L3.81683 4.90099C3.88283 4.03809 4.2722 3.23193 4.90705 2.64378C5.5419 2.05563 6.37541 1.72887 7.24083 1.72887C8.10625 1.72887 8.93976 2.05563 9.57461 2.64378C10.2095 3.23193 10.5988 4.03809 10.6648 4.90099L10.6878 5.20099L10.9748 5.30099C11.7369 5.5731 12.3783 6.10556 12.7861 6.80446C13.1939 7.50336 13.3417 8.3238 13.2036 9.12109C13.0655 9.91837 12.6503 10.6413 12.0312 11.1623C11.4122 11.6833 10.629 11.969 9.81983 11.969H9.81583Z" fill="#00BA00"/>
</svg>
