<svg width="54" height="54" viewBox="0 0 54 54" fill="none" xmlns="http://www.w3.org/2000/svg">
<path d="M54 27C54 12.0883 41.9117 0 27 0C12.0883 0 0 12.0883 0 27C0 41.9117 12.0883 54 27 54C41.9117 54 54 41.9117 54 27Z" fill="#1E1E1E"/>
<path d="M20.3267 35.823C20.1547 35.8218 19.9846 35.7864 19.8263 35.7189C19.668 35.6515 19.5247 35.5533 19.4047 35.43C17.1754 33.0617 15.9509 29.9213 15.9887 26.669C15.9497 23.4114 17.174 20.2654 19.4047 17.891C19.6452 17.7263 19.9347 17.6486 20.2253 17.6706C20.5159 17.6926 20.7904 17.8131 21.0033 18.0122C21.2162 18.2112 21.3549 18.4769 21.3964 18.7654C21.438 19.054 21.3798 19.348 21.2317 19.599C19.4917 21.5039 18.5502 24.0046 18.6017 26.584C18.5528 29.1579 19.4943 31.6523 21.2317 33.552C21.472 33.7953 21.6068 34.1235 21.6068 34.4655C21.6068 34.8075 21.472 35.1357 21.2317 35.379C21.1175 35.5089 20.9787 35.615 20.8234 35.6912C20.6681 35.7674 20.4993 35.8122 20.3267 35.823Z" fill="#00EBBD"/>
<path d="M15.2717 41.066C14.9344 41.0788 14.6049 40.963 14.3497 40.742C10.83 36.9388 8.91511 31.9232 9.00472 26.742C8.89174 21.5285 10.8094 16.4751 14.3527 12.649C14.5928 12.4758 14.8854 12.391 15.1809 12.4091C15.4763 12.4272 15.7564 12.5471 15.9735 12.7484C16.1906 12.9496 16.3312 13.2199 16.3716 13.5132C16.4119 13.8064 16.3494 14.1046 16.1947 14.357C13.1324 17.683 11.4742 22.0639 11.5667 26.584C11.4755 31.0997 13.1338 35.4758 16.1947 38.797C16.3668 38.9867 16.4818 39.2211 16.5265 39.4733C16.5712 39.7254 16.5438 39.985 16.4475 40.2223C16.3511 40.4596 16.1898 40.6648 15.982 40.8144C15.7741 40.9641 15.5283 41.052 15.2727 41.068L15.2717 41.066Z" fill="#00EBBD"/>
<path d="M34.3986 35.823C34.0646 35.82 33.7453 35.6848 33.5106 35.447C33.2709 35.2069 33.1362 34.8814 33.1362 34.542C33.1362 34.2027 33.2709 33.8772 33.5106 33.637C35.248 31.7373 36.1895 29.243 36.1406 26.669C36.1922 24.0896 35.2506 21.5889 33.5106 19.684C33.3625 19.433 33.3044 19.139 33.3459 18.8505C33.3874 18.562 33.5261 18.2962 33.739 18.0972C33.9519 17.8981 34.2264 17.7776 34.517 17.7556C34.8077 17.7336 35.0971 17.8113 35.3376 17.976C37.5692 20.3503 38.7943 23.4968 38.7556 26.755C38.7926 30.0068 37.5678 33.1463 35.3386 35.514C35.0782 35.7359 34.7408 35.8463 34.3996 35.821L34.3986 35.823Z" fill="#00EBBD"/>
<path d="M39.4537 41.065C39.1986 41.0691 38.9482 40.9965 38.7349 40.8564C38.5217 40.7164 38.3555 40.5155 38.2579 40.2798C38.1603 40.044 38.1358 39.7844 38.1877 39.5346C38.2395 39.2848 38.3653 39.0564 38.5487 38.879C41.6088 35.5585 43.2671 31.1837 43.1767 26.669C43.2662 22.1469 41.6036 17.7654 38.5367 14.441C38.415 14.3228 38.318 14.1816 38.2513 14.0256C38.1847 13.8695 38.1497 13.7018 38.1485 13.5322C38.1472 13.3625 38.1797 13.1943 38.2441 13.0373C38.3084 12.8803 38.4034 12.7377 38.5233 12.6177C38.6433 12.4977 38.7859 12.4028 38.9429 12.3385C39.0999 12.2741 39.2681 12.2416 39.4378 12.2428C39.6075 12.2441 39.7752 12.279 39.9312 12.3457C40.0872 12.4123 40.2285 12.5093 40.3467 12.631C43.8822 16.434 45.8044 21.4603 45.7087 26.652C45.8286 31.865 43.9111 36.9193 40.3637 40.741C40.1164 40.964 39.7912 41.0804 39.4587 41.065H39.4537Z" fill="#00EBBD"/>
<path d="M27.3628 31.776C26.4333 31.776 25.5246 31.5004 24.7517 30.9839C23.9788 30.4675 23.3763 29.7335 23.0206 28.8747C22.6649 28.0158 22.5718 27.0708 22.7532 26.1591C22.9345 25.2474 23.3821 24.4099 24.0394 23.7526C24.6967 23.0953 25.5342 22.6477 26.4459 22.4663C27.3576 22.285 28.3026 22.3781 29.1615 22.7338C30.0203 23.0895 30.7543 23.6919 31.2708 24.4649C31.7872 25.2378 32.0628 26.1465 32.0628 27.076C32.0628 28.3226 31.5677 29.518 30.6862 30.3994C29.8048 31.2809 28.6094 31.776 27.3628 31.776Z" fill="#00EBBD"/>
</svg>
