<svg width="32" height="33" viewBox="0 0 32 33" fill="none" xmlns="http://www.w3.org/2000/svg">
<path d="M30.812 10.9229C25.4235 10.9229 20.3576 13.0212 16.5474 16.8314C16.32 17.0588 16.099 17.291 15.884 17.5272C12.0595 13.3194 6.6664 10.9229 0.955726 10.9229H0.0246582V32.027H31.743V10.9229H30.812ZM14.682 18.9766C13.8116 20.13 13.074 21.3645 12.4766 22.6613C9.99049 19.2625 6.12663 17.1244 1.88679 16.85V12.8084C6.80984 13.0569 11.4065 15.2683 14.682 18.9766ZM1.88679 25.0214C4.53127 25.425 6.62667 27.5204 7.03032 30.1649H1.88679V25.0214ZM8.90847 30.1649C8.48123 26.4923 5.5593 23.5705 1.88679 23.1432V18.7168C5.93085 19.0181 9.56878 21.2702 11.6436 24.777C11.077 26.5018 10.7442 28.3107 10.6606 30.1649H8.90847ZM17.8641 18.1481C21.1022 14.91 25.3396 13.034 29.8809 12.8081V16.8503C26.418 17.0718 23.1928 18.5253 20.717 21.0011C18.2412 23.4769 16.7878 26.702 16.5662 30.165H12.5241C12.75 25.6237 14.626 21.3862 17.8641 18.1481ZM29.8809 18.7166V23.1432C26.2084 23.5705 23.2864 26.4924 22.8592 30.1649H18.4325C18.8873 24.0603 23.7763 19.1714 29.8809 18.7166ZM24.7374 30.1649C25.141 27.5204 27.2364 25.425 29.8809 25.0214V30.1649H24.7374Z" fill="#FF4656"/>
<path d="M15.9149 9.68079C18.4818 9.68079 20.5702 7.59241 20.5702 5.02545C20.5702 2.4585 18.4818 0.370117 15.9149 0.370117C13.3479 0.370117 11.2595 2.4585 11.2595 5.02545C11.2595 7.59241 13.3479 9.68079 15.9149 9.68079ZM15.9149 2.23225C17.455 2.23225 18.7081 3.48528 18.7081 5.02545C18.7081 6.56563 17.455 7.81866 15.9149 7.81866C14.3747 7.81866 13.1217 6.56563 13.1217 5.02545C13.1217 3.48528 14.3747 2.23225 15.9149 2.23225Z" fill="#FF4656"/>
</svg>
