<svg width="149" height="51" viewBox="0 0 149 51" fill="none" xmlns="http://www.w3.org/2000/svg">
<path d="M141 0.78299H8C3.58172 0.78299 0 4.36471 0 8.78299V42.783C0 47.2013 3.58172 50.783 8 50.783H141C145.418 50.783 149 47.2013 149 42.783V8.78299C149 4.36471 145.418 0.78299 141 0.78299Z" fill="#1E1E1E"/>
<path d="M26.1831 9.18299H28.9731L24.8511 21.783H21.7191L18.9471 13.251L16.0851 21.783H12.9711L8.83106 9.18299H11.8551L14.6991 18.039L17.6691 9.18299H20.3691L23.2491 18.111L26.1831 9.18299ZM39.1682 16.977C39.1682 17.193 39.1322 17.499 39.1142 17.733H31.7882C32.0582 18.939 33.0842 19.677 34.5602 19.677C35.5862 19.677 36.3242 19.371 36.9902 18.741L38.4842 20.361C37.5842 21.387 36.2342 21.927 34.4882 21.927C31.1402 21.927 28.9622 19.821 28.9622 16.941C28.9622 14.043 31.1762 11.955 34.1282 11.955C36.9722 11.955 39.1682 13.863 39.1682 16.977ZM34.1462 14.079C32.8682 14.079 31.9502 14.853 31.7522 16.095H36.5222C36.3242 14.871 35.4062 14.079 34.1462 14.079ZM41.0377 21.783V8.42699H43.8457V21.783H41.0377ZM51.1318 21.927C47.9818 21.927 45.7318 19.857 45.7318 16.941C45.7318 14.025 47.9818 11.955 51.1318 11.955C53.1658 11.955 54.7678 12.837 55.4698 14.421L53.2918 15.591C52.7698 14.673 51.9958 14.259 51.1138 14.259C49.6918 14.259 48.5758 15.249 48.5758 16.941C48.5758 18.633 49.6918 19.623 51.1138 19.623C51.9958 19.623 52.7698 19.227 53.2918 18.291L55.4698 19.479C54.7678 21.027 53.1658 21.927 51.1318 21.927ZM61.5715 21.927C58.4935 21.927 56.2435 19.857 56.2435 16.941C56.2435 14.025 58.4935 11.955 61.5715 11.955C64.6495 11.955 66.8815 14.025 66.8815 16.941C66.8815 19.857 64.6495 21.927 61.5715 21.927ZM61.5715 19.623C62.9755 19.623 64.0375 18.615 64.0375 16.941C64.0375 15.267 62.9755 14.259 61.5715 14.259C60.1675 14.259 59.0875 15.267 59.0875 16.941C59.0875 18.615 60.1675 19.623 61.5715 19.623ZM81.1604 11.955C83.4644 11.955 85.1204 13.287 85.1204 16.239V21.783H82.3124V16.671C82.3124 15.105 81.6104 14.385 80.4764 14.385C79.2164 14.385 78.3344 15.195 78.3344 16.923V21.783H75.5264V16.671C75.5264 15.105 74.8604 14.385 73.6904 14.385C72.4484 14.385 71.5664 15.195 71.5664 16.923V21.783H68.7584V12.099H71.4404V13.215C72.1604 12.387 73.2404 11.955 74.4824 11.955C75.8324 11.955 76.9844 12.477 77.6684 13.539C78.4424 12.549 79.7024 11.955 81.1604 11.955ZM97.2288 16.977C97.2288 17.193 97.1928 17.499 97.1748 17.733H89.8488C90.1188 18.939 91.1448 19.677 92.6208 19.677C93.6468 19.677 94.3848 19.371 95.0508 18.741L96.5448 20.361C95.6448 21.387 94.2948 21.927 92.5488 21.927C89.2008 21.927 87.0228 19.821 87.0228 16.941C87.0228 14.043 89.2368 11.955 92.1888 11.955C95.0328 11.955 97.2288 13.863 97.2288 16.977ZM92.2068 14.079C90.9288 14.079 90.0108 14.853 89.8128 16.095H94.5828C94.3848 14.871 93.4668 14.079 92.2068 14.079Z" fill="#B9FF00"/>
<path d="M15.941 38.999C11.963 38.999 9.04697 36.227 9.04697 32.483C9.04697 28.739 11.963 25.967 15.941 25.967C19.901 25.967 22.835 28.721 22.835 32.483C22.835 36.245 19.901 38.999 15.941 38.999ZM15.941 36.515C18.191 36.515 19.883 34.877 19.883 32.483C19.883 30.089 18.191 28.451 15.941 28.451C13.691 28.451 11.999 30.089 11.999 32.483C11.999 34.877 13.691 36.515 15.941 36.515ZM30.7145 28.955C33.0005 28.955 34.7285 30.287 34.7285 33.239V38.783H31.9205V33.671C31.9205 32.105 31.2005 31.385 29.9585 31.385C28.6085 31.385 27.6365 32.213 27.6365 33.995V38.783H24.8285V29.099H27.5105V30.233C28.2665 29.405 29.4005 28.955 30.7145 28.955ZM51.8214 32.231C53.2254 32.681 54.1254 33.761 54.1254 35.345C54.1254 37.523 52.3974 38.783 49.0854 38.783H42.5694V26.183H48.7254C51.8754 26.183 53.4954 27.497 53.4954 29.459C53.4954 30.719 52.8474 31.691 51.8214 32.231ZM48.3654 28.379H45.4674V31.349H48.3654C49.7874 31.349 50.5614 30.845 50.5614 29.855C50.5614 28.865 49.7874 28.379 48.3654 28.379ZM48.8694 36.587C50.3814 36.587 51.1914 36.119 51.1914 35.039C51.1914 33.977 50.3814 33.473 48.8694 33.473H45.4674V36.587H48.8694ZM60.7431 38.927C57.6651 38.927 55.4151 36.857 55.4151 33.941C55.4151 31.025 57.6651 28.955 60.7431 28.955C63.8211 28.955 66.0531 31.025 66.0531 33.941C66.0531 36.857 63.8211 38.927 60.7431 38.927ZM60.7431 36.623C62.1471 36.623 63.2091 35.615 63.2091 33.941C63.2091 32.267 62.1471 31.259 60.7431 31.259C59.3391 31.259 58.2591 32.267 58.2591 33.941C58.2591 35.615 59.3391 36.623 60.7431 36.623ZM71.6778 28.955C74.6298 28.955 76.3398 30.323 76.3398 33.257V38.783H73.7118V37.577C73.1898 38.459 72.1818 38.927 70.7598 38.927C68.4918 38.927 67.1418 37.667 67.1418 35.993C67.1418 34.283 68.3478 33.095 71.2998 33.095H73.5318C73.5318 31.889 72.8118 31.187 71.2998 31.187C70.2738 31.187 69.2118 31.529 68.5098 32.087L67.5018 30.125C68.5638 29.369 70.1298 28.955 71.6778 28.955ZM71.4618 37.037C72.3978 37.037 73.2078 36.605 73.5318 35.723V34.733H71.6058C70.2918 34.733 69.8778 35.219 69.8778 35.867C69.8778 36.569 70.4718 37.037 71.4618 37.037ZM81.5632 30.377C82.2472 29.441 83.3992 28.955 84.8932 28.955V31.547C84.6592 31.529 84.4792 31.511 84.2632 31.511C82.7152 31.511 81.6892 32.357 81.6892 34.211V38.783H78.8812V29.099H81.5632V30.377ZM93.531 25.427H96.339V38.783H93.657V37.667C92.955 38.513 91.929 38.927 90.633 38.927C87.897 38.927 85.791 36.983 85.791 33.941C85.791 30.899 87.897 28.955 90.633 28.955C91.821 28.955 92.829 29.333 93.531 30.125V25.427ZM91.119 36.623C92.505 36.623 93.585 35.615 93.585 33.941C93.585 32.267 92.505 31.259 91.119 31.259C89.715 31.259 88.635 32.267 88.635 33.941C88.635 35.615 89.715 36.623 91.119 36.623ZM99.1358 34.409L98.5778 26.183H101.926L101.368 34.409H99.1358ZM100.252 38.927C99.2438 38.927 98.5238 38.189 98.5238 37.289C98.5238 36.371 99.2438 35.687 100.252 35.687C101.26 35.687 101.98 36.371 101.98 37.289C101.98 38.189 101.26 38.927 100.252 38.927Z" fill="#B9FF00"/>
<path d="M133.623 21.455L128.303 20.682L125.925 15.861C125.718 15.4418 125.398 15.089 125 14.8422C124.603 14.5955 124.145 14.4648 123.678 14.4648C123.21 14.4648 122.752 14.5955 122.355 14.8422C121.957 15.089 121.637 15.4418 121.43 15.861L119.052 20.682L113.732 21.455C113.269 21.5225 112.835 21.718 112.477 22.0195C112.12 22.321 111.854 22.7164 111.71 23.161C111.565 23.6057 111.548 24.0819 111.66 24.5359C111.772 24.9898 112.008 25.4034 112.343 25.73L116.192 29.482L115.283 34.782C115.204 35.2428 115.256 35.7164 115.432 36.1493C115.609 36.5823 115.902 36.9573 116.281 37.2321C116.659 37.5069 117.106 37.6705 117.572 37.7044C118.039 37.7383 118.505 37.6412 118.919 37.424L123.677 34.924L128.435 37.424C128.849 37.6408 129.315 37.7376 129.781 37.7035C130.247 37.6694 130.695 37.5058 131.073 37.2311C131.451 36.9564 131.745 36.5816 131.921 36.1488C132.097 35.7161 132.149 35.2427 132.071 34.782L131.162 29.482L135.011 25.73C135.346 25.4035 135.582 24.99 135.694 24.5361C135.806 24.0822 135.789 23.6061 135.645 23.1614C135.5 22.7168 135.235 22.3214 134.877 22.0198C134.52 21.7183 134.086 21.5226 133.623 21.455ZM133.512 24.191L129.258 28.337C129.133 28.4586 129.04 28.6087 128.986 28.7743C128.932 28.94 128.92 29.1163 128.949 29.288L129.949 35.143C129.961 35.2088 129.953 35.2766 129.928 35.3386C129.903 35.4005 129.861 35.4542 129.807 35.4935C129.753 35.5328 129.689 35.5561 129.622 35.5608C129.556 35.5655 129.489 35.5513 129.43 35.52L124.177 32.761C124.023 32.6799 123.851 32.6375 123.677 32.6375C123.503 32.6375 123.331 32.6799 123.177 32.761L117.919 35.525C117.86 35.5563 117.793 35.5705 117.727 35.5658C117.66 35.5611 117.596 35.5378 117.542 35.4985C117.488 35.4592 117.446 35.4055 117.421 35.3436C117.396 35.2816 117.388 35.2138 117.4 35.148L118.4 29.293C118.429 29.1213 118.417 28.945 118.363 28.7793C118.309 28.6137 118.216 28.4636 118.091 28.342L113.842 24.191C113.794 24.1444 113.759 24.0852 113.743 24.0201C113.727 23.9549 113.729 23.8865 113.75 23.8227C113.771 23.7589 113.81 23.7023 113.861 23.6594C113.913 23.6165 113.975 23.5889 114.042 23.58L119.92 22.726C120.092 22.7011 120.256 22.6346 120.397 22.5323C120.538 22.4301 120.652 22.2951 120.729 22.139L123.352 16.812C123.381 16.7518 123.427 16.701 123.484 16.6655C123.54 16.63 123.606 16.6112 123.673 16.6112C123.74 16.6112 123.806 16.63 123.862 16.6655C123.919 16.701 123.965 16.7518 123.994 16.812L126.623 22.139C126.7 22.2951 126.814 22.4301 126.955 22.5323C127.096 22.6346 127.26 22.7011 127.432 22.726L133.31 23.58C133.377 23.5885 133.44 23.6156 133.492 23.6584C133.544 23.7011 133.583 23.7577 133.604 23.8216C133.625 23.8855 133.628 23.954 133.612 24.0194C133.596 24.0848 133.56 24.1442 133.512 24.191Z" fill="#B9FF00"/>
<path d="M116.045 15.003L114.76 13.235C114.592 13.0045 114.34 12.85 114.059 12.8055C113.777 12.7609 113.49 12.83 113.259 12.9975C113.029 13.165 112.874 13.4172 112.83 13.6986C112.785 13.98 112.854 14.2675 113.022 14.498L114.308 16.269C114.391 16.3831 114.495 16.4798 114.616 16.5535C114.736 16.6272 114.87 16.6765 115.009 16.6985C115.148 16.7206 115.291 16.715 115.428 16.682C115.565 16.6491 115.694 16.5894 115.808 16.5065C115.922 16.4236 116.019 16.319 116.093 16.1987C116.167 16.0784 116.216 15.9448 116.238 15.8054C116.26 15.6661 116.254 15.5238 116.221 15.3866C116.188 15.2494 116.129 15.1201 116.046 15.006L116.045 15.003Z" fill="#B9FF00"/>
<path d="M111.783 30.846C111.695 30.5751 111.503 30.3502 111.249 30.2208C110.996 30.0914 110.701 30.0681 110.43 30.156L108.309 30.845C108.175 30.8886 108.051 30.9582 107.943 31.0498C107.836 31.1414 107.748 31.2533 107.684 31.3789C107.62 31.5046 107.581 31.6417 107.57 31.7823C107.559 31.9229 107.576 32.0643 107.619 32.1985C107.663 32.3326 107.733 32.4569 107.824 32.5642C107.916 32.6714 108.028 32.7596 108.153 32.8236C108.279 32.8876 108.416 32.9262 108.557 32.9373C108.697 32.9483 108.839 32.9316 108.973 32.888L111.094 32.199C111.365 32.1109 111.589 31.9188 111.719 31.6651C111.848 31.4114 111.871 31.1168 111.783 30.846Z" fill="#B9FF00"/>
<path d="M134.095 12.997C133.864 12.8297 133.577 12.7607 133.296 12.8054C133.014 12.85 132.762 13.0045 132.595 13.235L131.311 15.003C131.228 15.1171 131.168 15.2464 131.135 15.3836C131.102 15.5208 131.097 15.6631 131.119 15.8024C131.163 16.0838 131.318 16.336 131.548 16.5035C131.779 16.671 132.066 16.74 132.348 16.6955C132.629 16.651 132.881 16.4965 133.049 16.266L134.334 14.498C134.417 14.3838 134.477 14.2543 134.509 14.117C134.542 13.9798 134.548 13.8373 134.526 13.6979C134.503 13.5585 134.454 13.4249 134.38 13.3046C134.306 13.1843 134.209 13.0798 134.095 12.997Z" fill="#B9FF00"/>
<path d="M139.046 30.846L136.925 30.157C136.791 30.1134 136.649 30.0966 136.509 30.1077C136.368 30.1188 136.231 30.1574 136.105 30.2214C135.98 30.2855 135.868 30.3736 135.776 30.4809C135.685 30.5881 135.615 30.7124 135.571 30.8465C135.528 30.9806 135.511 31.1221 135.522 31.2627C135.533 31.4033 135.572 31.5404 135.636 31.6661C135.7 31.7917 135.788 31.9036 135.895 31.9952C136.003 32.0868 136.127 32.1564 136.261 32.2L138.382 32.889C138.516 32.9326 138.657 32.9494 138.798 32.9383C138.939 32.9272 139.076 32.8886 139.201 32.8246C139.327 32.7606 139.439 32.6724 139.531 32.5652C139.622 32.4579 139.692 32.3336 139.735 32.1995C139.779 32.0654 139.796 31.9239 139.785 31.7833C139.774 31.6427 139.735 31.5056 139.671 31.3799C139.607 31.2543 139.519 31.1424 139.412 31.0508C139.304 30.9592 139.18 30.8896 139.046 30.846Z" fill="#B9FF00"/>
<path d="M123.677 39.167C123.392 39.167 123.119 39.2801 122.918 39.4815C122.716 39.683 122.603 39.9561 122.603 40.241V42.421C122.603 42.7058 122.716 42.979 122.918 43.1804C123.119 43.3818 123.392 43.495 123.677 43.495C123.962 43.495 124.235 43.3818 124.436 43.1804C124.638 42.979 124.751 42.7058 124.751 42.421V40.241C124.751 39.9561 124.638 39.683 124.436 39.4815C124.235 39.2801 123.962 39.167 123.677 39.167Z" fill="#B9FF00"/>
</svg>
