<svg width="19" height="19" viewBox="0 0 19 19" fill="none" xmlns="http://www.w3.org/2000/svg">
<path fill-rule="evenodd" clip-rule="evenodd" d="M15.4746 3.41982C13.7854 1.72865 11.539 0.79689 9.14569 0.795898C4.21414 0.795898 0.200567 4.80936 0.198583 9.74224C0.197922 11.3191 0.609858 12.8584 1.39285 14.2152L0.123535 18.8515L4.86654 17.6073C6.17343 18.3202 7.64474 18.6959 9.14206 18.6963H9.1458C14.0768 18.6963 18.0908 14.6825 18.0927 9.7494C18.0937 7.35867 17.1639 5.11087 15.4746 3.41982ZM9.14569 17.1853H9.14261C7.80828 17.1848 6.49962 16.8262 5.35771 16.1487L5.08628 15.9875L2.27171 16.7259L3.02296 13.9817L2.84609 13.7004C2.10167 12.5164 1.70858 11.1479 1.70924 9.74279C1.71078 5.64271 5.04683 2.30699 9.14867 2.30699C11.135 2.30765 13.0021 3.08216 14.4061 4.48779C15.8101 5.89342 16.5828 7.76179 16.5822 9.74885C16.5804 13.8493 13.2446 17.1853 9.14569 17.1853ZM13.2247 11.6158C13.0012 11.5038 11.9021 10.9632 11.6971 10.8885C11.4923 10.8138 11.3431 10.7767 11.1942 11.0004C11.0451 11.2241 10.6168 11.7278 10.4863 11.8769C10.3558 12.0261 10.2256 12.0448 10.002 11.9328C9.77837 11.821 9.05808 11.5848 8.20412 10.8232C7.5396 10.2304 7.09097 9.49836 6.96049 9.27465C6.83023 9.05072 6.95939 8.9414 7.05857 8.81841C7.30058 8.51789 7.54291 8.20282 7.61741 8.05372C7.69201 7.9045 7.65466 7.77391 7.59867 7.66206C7.54291 7.5502 7.09582 6.44983 6.90958 6.00208C6.72796 5.56634 6.54382 5.62519 6.4065 5.61835C6.27624 5.61185 6.12714 5.61053 5.97804 5.61053C5.82904 5.61053 5.58682 5.6664 5.38184 5.89033C5.17698 6.11415 4.59951 6.65492 4.59951 7.75529C4.59951 8.85566 5.40058 9.91867 5.51232 10.0679C5.62407 10.2171 7.08877 12.4751 9.33127 13.4434C9.86465 13.6739 10.281 13.8113 10.6058 13.9144C11.1413 14.0845 11.6286 14.0605 12.0138 14.003C12.4434 13.9387 13.3364 13.4621 13.5228 12.94C13.7091 12.4177 13.7091 11.9702 13.6531 11.8769C13.5973 11.7836 13.4482 11.7278 13.2247 11.6158Z" fill="#B9FF00"/>
</svg>
