<svg width="43" height="43" viewBox="0 0 43 43" fill="none" xmlns="http://www.w3.org/2000/svg">
<path d="M19.0163 27.141L19.7672 27.4523L20.2316 29.3889H23.1588L23.6232 27.4523L24.374 27.141L26.0777 28.1851L28.1472 26.1156L27.1032 24.4119L27.4144 23.661L29.3511 23.1966V20.2694L27.4144 19.805L27.1032 19.0543L28.1473 17.3505L26.0777 15.281L24.374 16.325L23.6232 16.0138L23.1588 14.0771H20.2316L19.7672 16.0138L19.0164 16.325L17.3126 15.2809L15.2432 17.3505L16.2872 19.0542L15.976 19.805L14.0393 20.2694V23.1966L15.976 23.661L16.2872 24.4118L15.2431 26.1156L17.3126 28.185L19.0163 27.141ZM16.9904 22.4728L15.4313 22.0989V21.3671L16.9904 20.9933L17.8446 18.9317L17.0034 17.5588L17.521 17.0411L18.8939 17.8825L20.9554 17.0282L21.3293 15.4691H22.0611L22.4349 17.0282L24.4965 17.8825L25.8694 17.0412L26.3871 17.5588L25.5457 18.9317L26.4 20.9933L27.9591 21.3671V22.099L26.4 22.4728L25.5457 24.5343L26.387 25.9073L25.8694 26.4249L24.4965 25.5836L22.4349 26.4378L22.0611 27.9969H21.3293L20.9554 26.4378L18.8939 25.5836L17.521 26.4248L17.0033 25.9073L17.8447 24.5343L16.9904 22.4728Z" fill="#30EEC9"/>
<path d="M21.6953 24.5162C22.2459 24.5162 22.7842 24.3529 23.242 24.047C23.6998 23.7411 24.0567 23.3063 24.2674 22.7976C24.4781 22.2889 24.5332 21.7291 24.4258 21.1891C24.3184 20.649 24.0532 20.153 23.6639 19.7636C23.2745 19.3743 22.7785 19.1092 22.2385 19.0017C21.6984 18.8943 21.1387 18.9494 20.63 19.1602C20.1213 19.3709 19.6865 19.7277 19.3806 20.1855C19.0747 20.6433 18.9114 21.1816 18.9114 21.7322C18.9122 22.4703 19.2058 23.1779 19.7277 23.6998C20.2496 24.2217 20.9572 24.5153 21.6953 24.5162ZM21.6953 20.3402C21.9706 20.3402 22.2398 20.4219 22.4687 20.5748C22.6976 20.7278 22.876 20.9452 22.9814 21.1995C23.0867 21.4539 23.1143 21.7337 23.0606 22.0038C23.0069 22.2738 22.8743 22.5218 22.6796 22.7165C22.4849 22.9111 22.2369 23.0437 21.9669 23.0974C21.6969 23.1511 21.417 23.1236 21.1626 23.0182C20.9083 22.9129 20.6909 22.7345 20.5379 22.5055C20.385 22.2766 20.3034 22.0075 20.3034 21.7322C20.3038 21.3632 20.4506 21.0093 20.7115 20.7484C20.9725 20.4874 21.3263 20.3406 21.6953 20.3402Z" fill="#30EEC9"/>
<path d="M38.399 29.6797L32.8311 26.498L27.2632 29.6797V37.7395H38.399V29.6797ZM34.2231 33.5635H31.4391V32.1716H34.2231V33.5635ZM31.4391 34.9555H34.2231V36.3475H31.4391V34.9555ZM37.007 36.3475H35.6151V30.7796H30.0471V36.3475H28.6552V30.4875L32.8311 28.1012L37.007 30.4875V36.3475Z" fill="#30EEC9"/>
<path d="M10.5595 20.3402H12.6475V18.9483H10.5595C8.90768 18.9483 7.29293 18.4584 5.91947 17.5407C4.54602 16.623 3.47554 15.3186 2.8434 13.7925C2.21127 12.2664 2.04588 10.5871 2.36813 8.96702C2.69039 7.34692 3.48583 5.85876 4.65386 4.69073C5.82189 3.5227 7.31005 2.72726 8.93015 2.405C10.5503 2.08274 12.2295 2.24814 13.7556 2.88027C15.2817 3.5124 16.5861 4.58288 17.5038 5.95634C18.4216 7.3298 18.9114 8.94454 18.9114 10.5964V12.6844H20.3034V10.5964C20.3034 8.66924 19.7319 6.78536 18.6612 5.183C17.5906 3.58063 16.0688 2.33174 14.2883 1.59425C12.5079 0.856761 10.5487 0.6638 8.65859 1.03977C6.76847 1.41574 5.03229 2.34375 3.66958 3.70645C2.30688 5.06915 1.37887 6.80534 1.0029 8.69546C0.626935 10.5856 0.819896 12.5447 1.55738 14.3252C2.29487 16.1057 3.54377 17.6274 5.14613 18.6981C6.7485 19.7688 8.63237 20.3402 10.5595 20.3402Z" fill="#30EEC9"/>
<path d="M24.4794 10.5964C24.4794 8.94454 24.9692 7.3298 25.8869 5.95634C26.8046 4.58288 28.109 3.5124 29.6351 2.88027C31.1612 2.24814 32.8405 2.08274 34.4606 2.405C36.0807 2.72726 37.5689 3.5227 38.7369 4.69073C39.9049 5.85876 40.7004 7.34692 41.0226 8.96702C41.3449 10.5871 41.1795 12.2664 40.5474 13.7925C39.9152 15.3186 38.8448 16.623 37.4713 17.5407C36.0978 18.4584 34.4831 18.9483 32.8312 18.9483H30.7433V20.3402H32.8312C34.7584 20.3402 36.6423 19.7688 38.2446 18.6981C39.847 17.6274 41.0959 16.1057 41.8334 14.3252C42.5709 12.5447 42.7638 10.5856 42.3879 8.69546C42.0119 6.80534 41.0839 5.06915 39.7212 3.70645C38.3585 2.34375 36.6223 1.41574 34.7322 1.03977C32.8421 0.6638 30.8829 0.856761 29.1024 1.59425C27.322 2.33174 25.8002 3.58063 24.7295 5.183C23.6589 6.78536 23.0874 8.66924 23.0874 10.5964V12.6844H24.4794V10.5964Z" fill="#30EEC9"/>
<path d="M18.9114 32.8679C18.9114 34.5197 18.4216 36.1345 17.5038 37.5079C16.5861 38.8814 15.2817 39.9519 13.7556 40.584C12.2295 41.2161 10.5503 41.3815 8.93015 41.0593C7.31005 40.737 5.82189 39.9416 4.65386 38.7735C3.48583 37.6055 2.69039 36.1173 2.36813 34.4972C2.04588 32.8771 2.21127 31.1979 2.8434 29.6717C3.47554 28.1456 4.54602 26.8413 5.91947 25.9235C7.29293 25.0058 8.90768 24.516 10.5595 24.516H12.6475V23.124H10.5595C8.63237 23.124 6.7485 23.6955 5.14613 24.7662C3.54377 25.8368 2.29487 27.3586 1.55738 29.1391C0.819896 30.9195 0.626935 32.8787 1.0029 34.7688C1.37887 36.6589 2.30688 38.3951 3.66958 39.7578C5.03229 41.1205 6.76847 42.0485 8.65859 42.4245C10.5487 42.8005 12.5079 42.6075 14.2883 41.87C16.0688 41.1325 17.5906 39.8836 18.6612 38.2813C19.7319 36.6789 20.3034 34.795 20.3034 32.8679V30.7799H18.9114V32.8679Z" fill="#30EEC9"/>
<path d="M32.8312 23.124H30.7433V24.516H32.8312C34.4831 24.516 36.0978 25.0058 37.4713 25.9235C38.8448 26.8413 39.9152 28.1456 40.5474 29.6717C41.1795 31.1979 41.3449 32.8771 41.0226 34.4972C40.7004 36.1173 39.9049 37.6055 38.7369 38.7735C37.5689 39.9416 36.0807 40.737 34.4606 41.0593C32.8405 41.3815 31.1612 41.2161 29.6351 40.584C28.109 39.9519 26.8046 38.8814 25.8869 37.5079C24.9692 36.1345 24.4794 34.5197 24.4794 32.8679V30.7799H23.0874V32.8679C23.0874 34.795 23.6589 36.6789 24.7295 38.2813C25.8002 39.8836 27.322 41.1325 29.1024 41.87C30.8829 42.6075 32.8421 42.8005 34.7322 42.4245C36.6223 42.0485 38.3585 41.1205 39.7212 39.7578C41.0839 38.3951 42.0119 36.6589 42.3879 34.7688C42.7638 32.8787 42.5709 30.9195 41.8334 29.1391C41.0959 27.3586 39.847 25.8368 38.2446 24.7662C36.6423 23.6955 34.7584 23.124 32.8312 23.124Z" fill="#30EEC9"/>
<path d="M5.6875 34.2601V37.044C5.68813 37.5976 5.90832 38.1283 6.29975 38.5197C6.69118 38.9112 7.2219 39.1314 7.77547 39.132H13.3434C13.8969 39.1314 14.4277 38.9112 14.8191 38.5197C15.2105 38.1283 15.4307 37.5976 15.4313 37.044V34.2601C15.4306 33.9361 15.3548 33.6166 15.2098 33.3268C15.0649 33.037 14.8549 32.7847 14.5961 32.5897L12.7703 31.2203L13.2006 29.9297C13.2952 29.6458 13.3434 29.3486 13.3434 29.0493V28.6922C13.3434 27.9538 13.0501 27.2457 12.528 26.7236C12.0059 26.2015 11.2978 25.9082 10.5594 25.9082C9.82107 25.9082 9.11296 26.2015 8.59087 26.7236C8.06878 27.2457 7.77547 27.9538 7.77547 28.6922V29.0493C7.77541 29.3486 7.82364 29.6459 7.91828 29.9298L8.34852 31.2203L6.52274 32.5897C6.26397 32.7847 6.05389 33.037 5.90898 33.3268C5.76407 33.6166 5.68826 33.9361 5.6875 34.2601ZM7.07948 34.2601C7.07973 34.1521 7.10501 34.0456 7.15331 33.949C7.20161 33.8524 7.27164 33.7683 7.35789 33.7033L9.98637 31.7319L9.2389 29.4896C9.19153 29.3476 9.16741 29.199 9.16744 29.0493V28.6922C9.16744 28.323 9.3141 27.9689 9.57515 27.7079C9.83619 27.4468 10.1902 27.3002 10.5594 27.3002C10.9286 27.3002 11.2827 27.4468 11.5437 27.7079C11.8047 27.9689 11.9514 28.323 11.9514 28.6922V29.0493C11.9514 29.1989 11.9273 29.3476 11.8799 29.4895L11.1325 31.7319L13.761 33.7033C13.8472 33.7683 13.9172 33.8524 13.9655 33.949C14.0138 34.0456 14.0391 34.1521 14.0394 34.2601V37.044C14.0392 37.2285 13.9658 37.4055 13.8353 37.5359C13.7048 37.6664 13.5279 37.7398 13.3434 37.74H7.77547C7.59094 37.7398 7.41404 37.6664 7.28356 37.5359C7.15308 37.4055 7.07969 37.2285 7.07948 37.044V34.2601Z" fill="#30EEC9"/>
<path d="M38.399 13.3805V7.81258C38.3984 7.25901 38.1782 6.72829 37.7868 6.33686C37.3953 5.94543 36.8646 5.72524 36.311 5.72461H29.3512C28.7976 5.72524 28.2669 5.94543 27.8754 6.33686C27.484 6.72829 27.2638 7.25901 27.2632 7.81258V13.3805C27.2638 13.9341 27.484 14.4648 27.8754 14.8562C28.2669 15.2476 28.7976 15.4678 29.3512 15.4685H36.311C36.8646 15.4678 37.3953 15.2476 37.7868 14.8562C38.1782 14.4648 38.3984 13.9341 38.399 13.3805ZM31.4391 7.11659H32.8311V9.90054H31.4391V7.11659ZM28.6552 13.3805V7.81258C28.6554 7.62805 28.7288 7.45115 28.8592 7.32067C28.9897 7.19019 29.1666 7.1168 29.3512 7.11659H30.0471V11.2925H34.2231V7.11659H36.311C36.4956 7.1168 36.6725 7.19019 36.8029 7.32067C36.9334 7.45115 37.0068 7.62805 37.007 7.81258V13.3805C37.0068 13.565 36.9334 13.7419 36.8029 13.8724C36.6725 14.0029 36.4956 14.0763 36.311 14.0765H29.3512C29.1666 14.0763 28.9897 14.0029 28.8592 13.8724C28.7288 13.7419 28.6554 13.565 28.6552 13.3805Z" fill="#30EEC9"/>
<path d="M7.77541 4.33203V7.31035L5.68744 8.00636V13.3799H4.99146V14.7719H16.1273V13.3799H15.4313V6.15034L14.0393 6.61432V4.33203H12.6473V7.07831L11.2554 7.54229V6.15034L9.16739 6.84635V4.33203H7.77541ZM14.0393 8.08164V13.3799H11.2554V9.00965L14.0393 8.08164ZM9.86338 13.3799H7.07942V9.00956L9.86338 8.08164V13.3799Z" fill="#30EEC9"/>
</svg>
