<svg width="47" height="48" viewBox="0 0 47 48" fill="none" xmlns="http://www.w3.org/2000/svg">
<g clip-path="url(#clip0_123_2335)">
<path d="M5.58822 21.1853C2.85001 21.1853 0.570862 23.4722 0.570862 26.2502V38.9519C0.570862 41.7303 2.85001 43.9643 5.58822 43.9643H41.8994C43.2079 43.9667 44.463 43.4386 45.386 42.4971C46.3086 41.5561 46.8226 40.2796 46.8133 38.9519V26.2502C46.8133 23.4722 44.6376 21.1853 41.8994 21.1853H40.3836L27.0554 8.5321C27.2935 8.03226 27.4171 7.48402 27.4163 6.92882C27.4151 4.87079 25.7696 3.20354 23.7414 3.20477C21.7132 3.206 20.0701 4.87572 20.0713 6.93374C20.0705 7.4873 20.1942 8.03349 20.4322 8.53128L7.10401 21.1853H5.58822ZM45.1581 38.9256C45.1581 40.7807 43.6758 42.2847 41.8477 42.2847H5.53649C3.70833 42.2847 2.22607 40.7807 2.22607 38.9256V26.224C2.22607 24.3689 3.70833 22.8649 5.53649 22.8649H41.8477C43.6758 22.8649 45.1581 24.3689 45.1581 26.224V38.9256ZM23.7438 4.88843C24.8579 4.88843 25.7611 5.80488 25.7611 6.93538C25.7611 8.06588 24.8579 8.98234 23.7438 8.98234C22.6297 8.98234 21.7265 8.06588 21.7265 6.93538C21.7277 5.80529 22.6301 4.88966 23.7438 4.88843ZM21.4707 9.84631C22.7994 10.9264 24.6894 10.9251 26.0169 9.84302L37.9618 21.1853H9.52541L21.4707 9.84631Z" fill="#B9FF00"/>
<path d="M10.5385 36.3128C10.6521 36.6802 11.1281 36.8585 11.6037 36.8585C12.0693 36.8585 12.5659 36.6802 12.6487 36.3128L13.1866 33.825L13.7245 36.3128C13.8073 36.6802 14.3039 36.8585 14.7695 36.8585C15.2455 36.8585 15.711 36.6802 15.8351 36.3128L17.8936 29.9095C17.9073 29.8652 17.9142 29.8193 17.9142 29.7729C17.9142 29.4162 17.3351 29.1222 16.8696 29.1222C16.6211 29.1222 16.4142 29.2063 16.3524 29.4264L14.78 34.8116L13.9625 31.2635C13.9007 30.9801 13.5386 30.8333 13.1866 30.8333C12.835 30.8333 12.473 30.9801 12.4107 31.2635L11.5936 34.8116L10.0213 29.4264C9.95902 29.2063 9.75212 29.1222 9.504 29.1222C9.03847 29.1222 8.45898 29.4162 8.45898 29.7729C8.45898 29.8193 8.46626 29.8652 8.47959 29.9095L10.5385 36.3128Z" fill="#B9FF00"/>
<path d="M22.0316 36.8585C23.4593 36.8585 24.5714 36.1869 24.5714 34.3815V31.5997C24.5714 29.7943 23.4593 29.1222 22.0316 29.1222C20.6039 29.1222 19.5023 29.7943 19.5023 31.5997V34.3815C19.5023 36.1869 20.6039 36.8585 22.0316 36.8585ZM21.0541 31.5997C21.0541 30.8751 21.4008 30.55 21.9799 30.55C22.5594 30.55 22.9162 30.8751 22.9162 31.5997V34.3815C22.9162 35.1056 22.5594 35.4312 21.9799 35.4312C21.4008 35.4312 21.0541 35.1056 21.0541 34.3815V31.5997Z" fill="#B9FF00"/>
<path d="M27.4163 36.7958C27.8196 36.7958 28.1922 36.6277 28.1922 36.2918V33.7819H28.9006L30.3182 36.5637C30.4172 36.7585 30.6196 36.8758 30.8354 36.8635C31.3111 36.8635 31.8489 36.4198 31.8489 36.0106C31.8501 35.9433 31.8324 35.8773 31.7972 35.8203L30.5352 33.4994C31.2593 33.2161 31.7871 32.5645 31.7871 31.3889C31.7871 29.6778 30.6592 29.1628 29.2421 29.1628H27.1007C26.9779 29.1505 26.8558 29.1935 26.7673 29.2809C26.6788 29.3682 26.6323 29.4904 26.6404 29.6151V36.2914C26.6404 36.6277 27.013 36.7958 27.4163 36.7958ZM28.1922 30.5278H29.2421C29.8215 30.5278 30.1731 30.7902 30.1731 31.5251C30.1731 32.2599 29.8215 32.5223 29.2421 32.5223H28.1922V30.5278Z" fill="#B9FF00"/>
<path d="M34.5027 36.7958C34.906 36.7958 35.3303 36.6277 35.3303 36.2919V34.3917L35.7465 33.825L37.5064 36.5543C37.6224 36.7511 37.8349 36.868 38.0608 36.8586C38.5263 36.8586 39.0311 36.4493 39.0311 36.0401C39.0287 35.9429 38.9996 35.8482 38.947 35.767L36.8049 32.4395L38.5017 30.2769C38.5684 30.1859 38.6047 30.0756 38.6052 29.962C38.6052 29.5528 38.0669 29.1222 37.6531 29.1222C37.4866 29.1181 37.3306 29.2067 37.247 29.3531L35.3303 32.1348V29.6155C35.3303 29.269 34.906 29.1222 34.5027 29.1222C34.0994 29.1222 33.6751 29.269 33.6751 29.6155V36.2915C33.6751 36.6277 34.0994 36.7958 34.5027 36.7958Z" fill="#B9FF00"/>
</g>
<defs>
<clipPath id="clip0_123_2335">
<rect width="46.2426" height="46.9226" fill="white" transform="translate(0.570862 0.160522)"/>
</clipPath>
</defs>
</svg>
